<?xml version="1.0" encoding="UTF-8" standalone="no"?>
<!-- Created with Inkscape (http://www.inkscape.org/) -->

<svg
   xmlns:osb="http://www.openswatchbook.org/uri/2009/osb"
   xmlns:dc="http://purl.org/dc/elements/1.1/"
   xmlns:cc="http://creativecommons.org/ns#"
   xmlns:rdf="http://www.w3.org/1999/02/22-rdf-syntax-ns#"
   xmlns:svg="http://www.w3.org/2000/svg"
   xmlns="http://www.w3.org/2000/svg"
   xmlns:sodipodi="http://sodipodi.sourceforge.net/DTD/sodipodi-0.dtd"
   xmlns:inkscape="http://www.inkscape.org/namespaces/inkscape"
   width="800"
   height="600"
   id="svg6335"
   version="1.1"
   inkscape:version="0.91 r13725"
   viewBox="0 0 800 600"
   sodipodi:docname="grass.svg">
  <defs
     id="defs6337">
    <linearGradient
       id="linearGradient6957"
       osb:paint="solid">
      <stop
         style="stop-color:#000000;stop-opacity:1;"
         offset="0"
         id="stop6959" />
    </linearGradient>
  </defs>
  <sodipodi:namedview
     id="base"
     pagecolor="#ffffff"
     bordercolor="#666666"
     borderopacity="1.0"
     inkscape:pageopacity="0.0"
     inkscape:pageshadow="2"
     inkscape:zoom="0.42426407"
     inkscape:cx="-81.956315"
     inkscape:cy="381.83848"
     inkscape:current-layer="layer1"
     inkscape:document-units="px"
     showgrid="false"
     inkscape:window-width="1366"
     inkscape:window-height="705"
     inkscape:window-x="-8"
     inkscape:window-y="-8"
     inkscape:window-maximized="1" />
  <metadata
     id="metadata6340">
    <rdf:RDF>
      <cc:Work
         rdf:about="">
        <dc:format>image/svg+xml</dc:format>
        <dc:type
           rdf:resource="http://purl.org/dc/dcmitype/StillImage" />
        <dc:title></dc:title>
      </cc:Work>
    </rdf:RDF>
  </metadata>
  <g
     id="layer1"
     inkscape:label="Layer 1"
     inkscape:groupmode="layer">
    <rect
       style="opacity:1;fill:#502d16;fill-opacity:1;fill-rule:evenodd;stroke:none;stroke-width:32;stroke-opacity:1"
       id="rect6343"
       width="399.99969"
       height="199.68652"
       x="-400.00964"
       y="400.31348"
       rx="2.1549907"
       ry="2.0231597"
       transform="scale(-1,1)" />
    <path
       sodipodi:nodetypes="sssssssss"
       inkscape:connector-curvature="0"
       id="path6976"
       d="m 166.02473,424.52761 18.08441,-3.44032 c 2.25023,-0.42807 19.52759,4.85368 20.15743,7.05264 l 3.44571,12.03012 c 0.62984,2.19897 -10.63081,7.417 -12.92143,7.39668 l -38.7587,-0.34403 c -2.29061,-0.0204 -9.9364,-5.9436 -9.13113,-8.08475 l 3.10114,-8.24576 c 0.80526,-2.14115 13.77234,-5.9365 16.02257,-6.36458 z"
       style="opacity:1;fill:#000000;fill-opacity:0.31927712;fill-rule:evenodd;stroke:none;stroke-width:32;stroke-opacity:1" />
    <path
       style="opacity:1;fill:#000000;fill-opacity:0.31927712;fill-rule:evenodd;stroke:none;stroke-width:32;stroke-opacity:1"
       d="m 48.343255,429.13957 43.736471,-8.32027 c 5.442092,-1.03529 47.226734,11.73843 48.749964,17.05656 l 8.33333,29.09436 c 1.52324,5.31812 -25.7102,17.93775 -31.24998,17.88857 L 24.176607,484.02677 C 18.63683,483.9776 0.14579315,469.65242 2.0932893,464.47413 L 9.5932837,444.53207 C 11.54078,439.35379 42.901163,430.17486 48.343255,429.13957 Z"
       id="rect6403"
       inkscape:connector-curvature="0"
       sodipodi:nodetypes="sssssssss" />
    <path
       sodipodi:nodetypes="aaaaaaaaa"
       inkscape:connector-curvature="0"
       id="path6978"
       d="m 279.01357,425.50713 c 5.77047,-4.47126 16.14252,-4.47126 21.91297,0 1.81759,1.40836 1.81187,4.38066 1.71325,6.67567 -0.28565,6.64762 -3.00197,13.24241 -6.60304,18.84108 -1.95863,3.04512 -4.46152,6.21131 -7.83933,7.52397 -5.60349,2.17758 -13.9524,3.98895 -18.03403,-0.41957 -2.71676,-2.93435 -0.30492,-8.09231 0.66283,-11.96974 1.24305,-4.98042 4.7499,-9.14031 6.4741,-13.97574 0.77165,-2.16407 -0.10433,-5.26731 1.71325,-6.67567 z"
       style="opacity:1;fill:#764321;fill-opacity:0.55421687;fill-rule:evenodd;stroke:none;stroke-width:32;stroke-opacity:1" />
    <path
       style="opacity:1;fill:#764321;fill-opacity:0.55421687;fill-rule:evenodd;stroke:none;stroke-width:32;stroke-opacity:1"
       d="m 321.60246,431.5085 c 13.95564,-10.81357 39.04005,-10.81357 52.99569,0 4.39576,3.40606 4.38089,10.59443 4.14343,16.14486 -0.86235,20.15684 -7.33228,41.41825 -19.99999,57.13673 -6.25989,7.76748 -15.80342,13.33769 -25.50911,15.68113 -14.82816,3.58028 -39.2001,10.2827 -45.63,-3.52999 -4.14503,-8.90436 12.96892,-15.06447 17.22226,-23.91777 6.79947,-14.15306 8.57716,-30.20475 12.63429,-45.3701 1.4359,-5.36731 -0.25233,-12.7388 4.14343,-16.14486 z"
       id="rect6967"
       inkscape:connector-curvature="0"
       sodipodi:nodetypes="aaaaaaaaa" />
    <path
       style="opacity:1;fill:#008000;fill-opacity:1;fill-rule:evenodd;stroke:none;stroke-width:32;stroke-opacity:1"
       d="m 41.485898,400.32138 c 3.641776,0.054 1.507336,0.25529 1.55603,1.52915 0.643835,16.84309 -14.947719,30.7637 -25.427064,44.12205 -1.796568,2.29014 -5.324425,4.97117 -6.311235,6.03769 l -4.7056803,5.08577 c -0.5969326,0 -5.7312529,-5.22025 -5.99873555,-9.1266 C -0.38946723,433.53064 0.19990791,417.69153 2.5488513e-4,402.55256 -0.01694326,401.24849 0.83865381,400.44628 1.8167018,400.32139 c 2.0773562,-0.26527 26.6668862,-0.19279 39.6691962,-1e-5 z"
       id="rect6348"
       inkscape:connector-curvature="0"
       sodipodi:nodetypes="sssszssss" />
    <path
       style="opacity:1;fill:#008000;fill-opacity:1;fill-rule:evenodd;stroke:none;stroke-width:32;stroke-opacity:1"
       d="m 48.482695,432.9691 c -4.835447,16.45022 -20.877302,41.17437 -24.811337,43.52769 -5.475009,3.27514 9.082803,-31.14067 9.803306,-43.23352 0.418692,-7.02725 -3.474153,-32.7211 11.613474,-32.93771 24.781128,-0.35578 11.353127,5.56844 3.394557,32.64354 z"
       id="path6351"
       inkscape:connector-curvature="0"
       sodipodi:nodetypes="sssss" />
    <path
       style="opacity:1;fill:#008000;fill-opacity:1;fill-rule:evenodd;stroke:none;stroke-width:32;stroke-opacity:1"
       d="m 53.133657,400.33949 15.690009,0 c 10.474634,-0.14708 2.734116,0.84542 2.832692,2.02316 l 2.97792,35.57897 c 0.09858,1.17774 -0.503888,13.9626 -1.268956,13.04752 l -7.565008,-9.04829 c -0.765065,-0.91508 -2.84168,-8.81788 -3.24936,-9.92742 L 51.656373,402.36265 c -0.407679,-1.10955 -5.003033,-2.02316 1.477284,-2.02316 z"
       id="rect6354"
       inkscape:connector-curvature="0"
       sodipodi:nodetypes="scsssssss" />
    <path
       style="opacity:1;fill:#008000;fill-opacity:1;fill-rule:evenodd;stroke:none;stroke-width:32;stroke-opacity:1"
       d="m 131.25986,410.60981 c -0.32916,8.54842 -42.297846,33.78743 -46.558412,34.86112 -5.882786,1.4825 24.413842,-23.31674 14.370939,-23.31674 -8.795389,0 -35.751367,27.5121 -47.722564,28.2769 -3.348634,0.21393 25.408194,-30.10221 20.951751,-36.70118 -9.547582,-14.13776 -16.588089,-13.5333 27.604145,-13.5026 44.192231,0.0308 31.860071,-2.75664 31.354141,10.3825 z"
       id="path6357"
       inkscape:connector-curvature="0"
       sodipodi:nodetypes="ssssszs" />
    <path
       style="opacity:1;fill:#008000;fill-opacity:1;fill-rule:evenodd;stroke:none;stroke-width:32;stroke-opacity:1"
       d="m 125.96326,400.32609 28.11162,0 c 1.19386,0 -3.84334,10.55733 2.15499,19.64401 l 4.2721,6.47165 c 5.99835,9.08667 -9.96932,22.72688 -12.42708,16.55528 -9.1454,-22.96476 -7.24942,21.70573 -14.74595,2.64749 -3.9925,-10.15001 -4.93266,-15.41756 -6.86903,-9.49529 -1.90979,5.84096 -11.24496,25.1512 -1.32582,-18.38538 1.48468,-6.51647 -0.3647,-17.43776 0.82917,-17.43776 z"
       id="rect6360"
       inkscape:connector-curvature="0"
       sodipodi:nodetypes="sssssssss" />
    <path
       sodipodi:nodetypes="aaaaaaaaa"
       inkscape:connector-curvature="0"
       id="path6982"
       d="m 255.33784,461.33819 c 9.3995,-4.28342 18.39714,9.92813 28.46323,12.25464 3.81313,0.88131 8.68087,-1.89146 11.72848,0.56055 3.53947,2.84774 5.36629,8.99773 3.5329,13.15074 -1.45646,3.29921 -6.11954,4.08215 -9.61695,4.97982 -10.64,2.73095 -22.98434,5.43731 -32.94773,0.81617 -2.46972,-1.14549 -4.03316,-3.86576 -5.11301,-6.36179 -1.20209,-2.77858 -1.51675,-5.97621 -1.26232,-8.99224 0.48236,-5.71787 -0.0129,-14.02532 5.2154,-16.40789 z"
       style="opacity:1;fill:#000000;fill-opacity:0.31927712;fill-rule:evenodd;stroke:none;stroke-width:32;stroke-opacity:1" />
    <path
       sodipodi:nodetypes="sssszssss"
       inkscape:connector-curvature="0"
       id="path6383"
       d="m 193.48579,400.32138 c 3.64177,0.054 1.50733,0.25529 1.55602,1.52915 0.64384,16.84309 -14.94771,30.7637 -25.42706,44.12205 -1.79657,2.29014 -5.32442,4.97117 -6.31123,6.03769 l -4.70568,5.08577 c -0.59694,0 -5.73125,-5.22025 -5.99873,-9.1266 -0.98869,-14.4388 -0.39931,-30.27791 -0.59896,-45.41688 -0.0172,-1.30407 0.8384,-2.10628 1.81644,-2.23117 2.07735,-0.26527 26.66689,-0.19279 39.6692,-1e-5 z"
       style="opacity:1;fill:#008000;fill-opacity:1;fill-rule:evenodd;stroke:none;stroke-width:32;stroke-opacity:1" />
    <path
       sodipodi:nodetypes="aaaaaaaaa"
       inkscape:connector-curvature="0"
       id="path6984"
       d="m 206.33456,461.48351 c 3.89942,1.03331 7.85517,2.49342 11.88436,2.28808 3.95268,-0.20147 8.27647,-5.88416 11.3692,-3.41831 4.42838,3.53079 2.78173,12.88729 -1.17937,16.93383 -3.69837,3.77814 -10.61111,2.46442 -15.80607,1.46126 -3.8273,-0.73907 -6.93612,-3.55458 -10.40303,-5.33412 -3.22075,-1.65319 -8.60349,-1.50529 -9.6601,-4.96373 -1.09172,-3.57336 1.92556,-8.46822 5.41473,-9.81759 2.75187,-1.06423 5.52794,2.09475 8.38028,2.85058 z"
       style="opacity:1;fill:#df993e;fill-opacity:0.38554215;fill-rule:evenodd;stroke:none;stroke-width:32;stroke-opacity:1" />
    <path
       sodipodi:nodetypes="sssss"
       inkscape:connector-curvature="0"
       id="path6385"
       d="m 200.48258,432.9691 c -4.83545,16.45022 -20.87729,41.17437 -24.81133,43.52769 -5.47502,3.27514 9.0828,-31.14067 9.8033,-43.23352 0.41869,-7.02725 -3.47415,-32.7211 11.61347,-32.93771 24.78113,-0.35578 11.35313,5.56844 3.39456,32.64354 z"
       style="opacity:1;fill:#008000;fill-opacity:1;fill-rule:evenodd;stroke:none;stroke-width:32;stroke-opacity:1" />
    <path
       sodipodi:nodetypes="scsssssss"
       inkscape:connector-curvature="0"
       id="path6387"
       d="m 205.13355,400.33949 15.69,0 c 10.47464,-0.14708 2.73412,0.84542 2.83269,2.02316 l 2.97793,35.57897 c 0.0986,1.17774 -0.50389,13.9626 -1.26896,13.04752 l -7.565,-9.04829 c -0.76507,-0.91508 -2.84169,-8.81788 -3.24937,-9.92742 l -10.89458,-29.65078 c -0.40768,-1.10955 -5.00303,-2.02316 1.47729,-2.02316 z"
       style="opacity:1;fill:#008000;fill-opacity:1;fill-rule:evenodd;stroke:none;stroke-width:32;stroke-opacity:1" />
    <path
       sodipodi:nodetypes="ssssszs"
       inkscape:connector-curvature="0"
       id="path6389"
       d="m 283.25975,410.60981 c -0.32916,8.54842 -42.29785,33.78743 -46.55842,34.86112 -5.88278,1.4825 24.41384,-23.31674 14.37094,-23.31674 -8.79538,0 -35.75136,27.5121 -47.72256,28.2769 -3.34863,0.21393 25.4082,-30.10221 20.95175,-36.70118 -9.54758,-14.13776 -16.58809,-13.5333 27.60415,-13.5026 44.19223,0.0308 31.86007,-2.75664 31.35414,10.3825 z"
       style="opacity:1;fill:#008000;fill-opacity:1;fill-rule:evenodd;stroke:none;stroke-width:32;stroke-opacity:1" />
    <path
       sodipodi:nodetypes="sssssssss"
       inkscape:connector-curvature="0"
       id="path6391"
       d="m 277.96314,400.32609 28.11163,0 c 1.19386,0 -3.84335,10.55733 2.15499,19.64401 l 4.2721,6.47165 c 5.99834,9.08667 -9.96933,22.72688 -12.42708,16.55528 -9.14541,-22.96476 -7.24942,21.70573 -14.74595,2.64749 -3.9925,-10.15001 -4.93266,-15.41756 -6.86904,-9.49529 -1.90979,5.84096 -11.24495,25.1512 -1.32582,-18.38538 1.48468,-6.51647 -0.3647,-17.43776 0.82917,-17.43776 z"
       style="opacity:1;fill:#008000;fill-opacity:1;fill-rule:evenodd;stroke:none;stroke-width:32;stroke-opacity:1" />
    <path
       style="opacity:1;fill:#008000;fill-opacity:1;fill-rule:evenodd;stroke:none;stroke-width:32;stroke-opacity:1"
       d="m 289.48571,400.32138 c 3.64178,0.054 1.50734,0.25529 1.55603,1.52915 0.64384,16.84309 -14.94772,30.7637 -25.42706,44.12205 -1.79657,2.29014 -5.32442,4.97117 -6.31123,6.03769 l -4.70568,5.08577 c -0.59694,0 -5.73126,-5.22025 -5.99874,-9.1266 -0.98869,-14.4388 -0.39931,-30.27791 -0.59896,-45.41688 -0.0172,-1.30407 0.8384,-2.10628 1.81645,-2.23117 2.07735,-0.26527 26.66688,-0.19279 39.66919,-1e-5 z"
       id="path6393"
       inkscape:connector-curvature="0"
       sodipodi:nodetypes="sssszssss" />
    <path
       style="opacity:1;fill:#008000;fill-opacity:1;fill-rule:evenodd;stroke:none;stroke-width:32;stroke-opacity:1"
       d="m 296.48251,432.9691 c -4.83545,16.45022 -20.8773,41.17437 -24.81133,43.52769 -5.47502,3.27514 9.0828,-31.14067 9.8033,-43.23352 0.41869,-7.02725 -3.47415,-32.7211 11.61347,-32.93771 24.78113,-0.35578 11.35313,5.56844 3.39456,32.64354 z"
       id="path6395"
       inkscape:connector-curvature="0"
       sodipodi:nodetypes="sssss" />
    <path
       style="opacity:1;fill:#008000;fill-opacity:1;fill-rule:evenodd;stroke:none;stroke-width:32;stroke-opacity:1"
       d="m 301.13347,400.33949 15.69001,0 c 10.47464,-0.14708 2.73412,0.84542 2.83269,2.02316 l 2.97793,35.57897 c 0.0986,1.17774 -0.50389,13.9626 -1.26896,13.04752 l -7.565,-9.04829 c -0.76507,-0.91508 -2.84169,-8.81788 -3.24937,-9.92742 l -10.89458,-29.65078 c -0.40768,-1.10955 -5.00303,-2.02316 1.47728,-2.02316 z"
       id="path6397"
       inkscape:connector-curvature="0"
       sodipodi:nodetypes="scsssssss" />
    <path
       style="opacity:1;fill:#008000;fill-opacity:1;fill-rule:evenodd;stroke:none;stroke-width:32;stroke-opacity:1"
       d="m 379.25968,410.60981 c -0.32916,8.54842 -42.29785,33.78743 -46.55842,34.86112 -5.88278,1.4825 24.41384,-23.31674 14.37094,-23.31674 -8.79538,0 -35.75136,27.5121 -47.72256,28.2769 -3.34863,0.21393 25.4082,-30.10221 20.95175,-36.70118 -9.54758,-14.13776 -16.58809,-13.5333 27.60415,-13.5026 44.19223,0.0308 31.86007,-2.75664 31.35414,10.3825 z"
       id="path6399"
       inkscape:connector-curvature="0"
       sodipodi:nodetypes="ssssszs" />
    <path
       style="opacity:1;fill:#008000;fill-opacity:1;fill-rule:evenodd;stroke:none;stroke-width:32;stroke-opacity:1"
       d="m 373.96307,400.32609 28.11163,0 c 1.19386,0 -3.84335,10.55733 2.15499,19.64401 l 4.27209,6.47165 c 5.99835,9.08667 -9.96932,22.72688 -12.42708,16.55528 -9.1454,-22.96476 -7.24941,21.70573 -14.74595,2.64749 -3.99249,-10.15001 -4.93265,-15.41756 -6.86903,-9.49529 -1.90979,5.84096 -11.24495,25.1512 -1.32582,-18.38538 1.48468,-6.51647 -0.3647,-17.43776 0.82917,-17.43776 z"
       id="path6401"
       inkscape:connector-curvature="0"
       sodipodi:nodetypes="sssssssss" />
    <path
       style="opacity:1;fill:#764321;fill-opacity:0.55421687;fill-rule:evenodd;stroke:none;stroke-width:32;stroke-opacity:1"
       d="m 21.194826,497.80208 c 11.970785,3.88282 29.041178,0.64862 36.745705,10.81636 7.02336,9.26881 -3.738394,23.99969 0.393426,34.86548 3.807203,10.01212 18.619187,13.84865 21.083318,24.27166 1.278261,5.4069 0.05544,12.49958 -4.143424,16.14487 -11.304558,9.81421 -29.913795,4.57631 -44.662366,4.99217 -2.29454,0.0647 -17.119191,-6.92978 -18.726745,-15.72886 C 8.3291902,553.70216 8.9402959,535.0726 5.3847443,515.61101 3.7771897,506.81193 19.011683,497.09397 21.194826,497.80208 Z"
       id="rect6963"
       inkscape:connector-curvature="0"
       sodipodi:nodetypes="saaaassss" />
    <path
       style="opacity:1;fill:#000000;fill-opacity:0.31927712;fill-rule:evenodd;stroke:none;stroke-width:32;stroke-opacity:1"
       d="m 247.21286,553.88158 c 28.52419,-16.66412 65.44737,-25.46099 97.55642,-17.64996 6.86287,1.66951 12.85938,7.05713 16.77643,12.92598 6.0963,9.13401 12.97817,21.76067 8.54419,31.80458 -3.52239,7.979 -14.78859,9.9168 -23.25823,12.04348 -33.25458,8.35008 -69.31859,8.58728 -102.85972,1.47083 -5.70892,-1.21127 -13.51663,-2.01429 -15.89255,-7.33683 -2.30602,-5.16596 2.31675,-11.23737 5.00868,-16.21377 3.50973,-6.48824 7.75019,-13.32022 14.12478,-17.04431 z"
       id="rect6965"
       inkscape:connector-curvature="0"
       sodipodi:nodetypes="aaaaaaaaa" />
    <path
       style="opacity:1;fill:#df993e;fill-opacity:0.38554215;fill-rule:evenodd;stroke:none;stroke-width:32;stroke-opacity:1"
       d="m 145.83104,518.51601 c 9.24461,0.0438 18.80687,2.39793 27.73418,0 8.54432,-2.29507 15.22193,-17.57932 22.96135,-13.2976 10.34921,5.72555 7.70907,25.56938 1.17851,35.42017 -6.44527,9.72216 -21.49106,9.26623 -32.68406,12.58902 -7.23135,2.14671 -14.7744,3.06053 -22.13626,4.70665 -5.11264,1.14319 -10.61183,5.92341 -15.30105,3.59012 -14.16072,-7.04619 -27.85448,-30.17061 -19.15079,-43.36265 6.85794,-10.39449 24.93166,0.29524 37.39812,0.35429 z"
       id="rect6969"
       inkscape:connector-curvature="0"
       sodipodi:nodetypes="aaaaaaaaa" />
    <rect
       transform="scale(-1,1)"
       ry="2.0231597"
       rx="2.1549907"
       y="400.31348"
       x="-400.00964"
       height="199.68652"
       width="399.99969"
       id="rect6986"
       style="opacity:1;fill:#502d16;fill-opacity:1;fill-rule:evenodd;stroke:none;stroke-width:32;stroke-opacity:1" />
    <path
       style="opacity:1;fill:#000000;fill-opacity:0.31927712;fill-rule:evenodd;stroke:none;stroke-width:32;stroke-opacity:1"
       d="m 166.02473,424.52761 18.08441,-3.44032 c 2.25023,-0.42807 19.52759,4.85368 20.15743,7.05264 l 3.44571,12.03012 c 0.62984,2.19897 -10.63081,7.417 -12.92143,7.39668 l -38.7587,-0.34403 c -2.29061,-0.0204 -9.9364,-5.9436 -9.13113,-8.08475 l 3.10114,-8.24576 c 0.80526,-2.14115 13.77234,-5.9365 16.02257,-6.36458 z"
       id="path6988"
       inkscape:connector-curvature="0"
       sodipodi:nodetypes="sssssssss" />
    <path
       sodipodi:nodetypes="sssssssss"
       inkscape:connector-curvature="0"
       id="path6990"
       d="m 48.343255,429.13957 43.736471,-8.32027 c 5.442092,-1.03529 47.226734,11.73843 48.749964,17.05656 l 8.33333,29.09436 c 1.52324,5.31812 -25.7102,17.93775 -31.24998,17.88857 L 24.176607,484.02677 C 18.63683,483.9776 0.14579315,469.65242 2.0932893,464.47413 L 9.5932837,444.53207 C 11.54078,439.35379 42.901163,430.17486 48.343255,429.13957 Z"
       style="opacity:1;fill:#000000;fill-opacity:0.31927712;fill-rule:evenodd;stroke:none;stroke-width:32;stroke-opacity:1" />
    <path
       style="opacity:1;fill:#764321;fill-opacity:0.55421687;fill-rule:evenodd;stroke:none;stroke-width:32;stroke-opacity:1"
       d="m 279.01357,425.50713 c 5.77047,-4.47126 16.14252,-4.47126 21.91297,0 1.81759,1.40836 1.81187,4.38066 1.71325,6.67567 -0.28565,6.64762 -3.00197,13.24241 -6.60304,18.84108 -1.95863,3.04512 -4.46152,6.21131 -7.83933,7.52397 -5.60349,2.17758 -13.9524,3.98895 -18.03403,-0.41957 -2.71676,-2.93435 -0.30492,-8.09231 0.66283,-11.96974 1.24305,-4.98042 4.7499,-9.14031 6.4741,-13.97574 0.77165,-2.16407 -0.10433,-5.26731 1.71325,-6.67567 z"
       id="path6992"
       inkscape:connector-curvature="0"
       sodipodi:nodetypes="aaaaaaaaa" />
    <path
       sodipodi:nodetypes="aaaaaaaaa"
       inkscape:connector-curvature="0"
       id="path6994"
       d="m 321.60246,431.5085 c 13.95564,-10.81357 39.04005,-10.81357 52.99569,0 4.39576,3.40606 4.38089,10.59443 4.14343,16.14486 -0.86235,20.15684 -7.33228,41.41825 -19.99999,57.13673 -6.25989,7.76748 -15.80342,13.33769 -25.50911,15.68113 -14.82816,3.58028 -39.2001,10.2827 -45.63,-3.52999 -4.14503,-8.90436 12.96892,-15.06447 17.22226,-23.91777 6.79947,-14.15306 8.57716,-30.20475 12.63429,-45.3701 1.4359,-5.36731 -0.25233,-12.7388 4.14343,-16.14486 z"
       style="opacity:1;fill:#764321;fill-opacity:0.55421687;fill-rule:evenodd;stroke:none;stroke-width:32;stroke-opacity:1" />
    <path
       sodipodi:nodetypes="sssszssss"
       inkscape:connector-curvature="0"
       id="path6996"
       d="m 41.485898,400.32138 c 3.641776,0.054 1.507336,0.25529 1.55603,1.52915 0.643835,16.84309 -14.947719,30.7637 -25.427064,44.12205 -1.796568,2.29014 -5.324425,4.97117 -6.311235,6.03769 l -4.7056803,5.08577 c -0.5969326,0 -5.7312529,-5.22025 -5.99873555,-9.1266 C -0.38946723,433.53064 0.19990791,417.69153 2.5488513e-4,402.55256 -0.01694326,401.24849 0.83865381,400.44628 1.8167018,400.32139 c 2.0773562,-0.26527 26.6668862,-0.19279 39.6691962,-1e-5 z"
       style="opacity:1;fill:#008000;fill-opacity:1;fill-rule:evenodd;stroke:none;stroke-width:32;stroke-opacity:1" />
    <path
       sodipodi:nodetypes="sssss"
       inkscape:connector-curvature="0"
       id="path6998"
       d="m 48.482695,432.9691 c -4.835447,16.45022 -20.877302,41.17437 -24.811337,43.52769 -5.475009,3.27514 9.082803,-31.14067 9.803306,-43.23352 0.418692,-7.02725 -3.474153,-32.7211 11.613474,-32.93771 24.781128,-0.35578 11.353127,5.56844 3.394557,32.64354 z"
       style="opacity:1;fill:#008000;fill-opacity:1;fill-rule:evenodd;stroke:none;stroke-width:32;stroke-opacity:1" />
    <path
       sodipodi:nodetypes="scsssssss"
       inkscape:connector-curvature="0"
       id="path7000"
       d="m 53.133657,400.33949 15.690009,0 c 10.474634,-0.14708 2.734116,0.84542 2.832692,2.02316 l 2.97792,35.57897 c 0.09858,1.17774 -0.503888,13.9626 -1.268956,13.04752 l -7.565008,-9.04829 c -0.765065,-0.91508 -2.84168,-8.81788 -3.24936,-9.92742 L 51.656373,402.36265 c -0.407679,-1.10955 -5.003033,-2.02316 1.477284,-2.02316 z"
       style="opacity:1;fill:#008000;fill-opacity:1;fill-rule:evenodd;stroke:none;stroke-width:32;stroke-opacity:1" />
    <path
       sodipodi:nodetypes="ssssszs"
       inkscape:connector-curvature="0"
       id="path7002"
       d="m 131.25986,410.60981 c -0.32916,8.54842 -42.297846,33.78743 -46.558412,34.86112 -5.882786,1.4825 24.413842,-23.31674 14.370939,-23.31674 -8.795389,0 -35.751367,27.5121 -47.722564,28.2769 -3.348634,0.21393 25.408194,-30.10221 20.951751,-36.70118 -9.547582,-14.13776 -16.588089,-13.5333 27.604145,-13.5026 44.192231,0.0308 31.860071,-2.75664 31.354141,10.3825 z"
       style="opacity:1;fill:#008000;fill-opacity:1;fill-rule:evenodd;stroke:none;stroke-width:32;stroke-opacity:1" />
    <path
       sodipodi:nodetypes="sssssssss"
       inkscape:connector-curvature="0"
       id="path7004"
       d="m 125.96326,400.32609 28.11162,0 c 1.19386,0 -3.84334,10.55733 2.15499,19.64401 l 4.2721,6.47165 c 5.99835,9.08667 -9.96932,22.72688 -12.42708,16.55528 -9.1454,-22.96476 -7.24942,21.70573 -14.74595,2.64749 -3.9925,-10.15001 -4.93266,-15.41756 -6.86903,-9.49529 -1.90979,5.84096 -11.24496,25.1512 -1.32582,-18.38538 1.48468,-6.51647 -0.3647,-17.43776 0.82917,-17.43776 z"
       style="opacity:1;fill:#008000;fill-opacity:1;fill-rule:evenodd;stroke:none;stroke-width:32;stroke-opacity:1" />
    <path
       style="opacity:1;fill:#000000;fill-opacity:0.31927712;fill-rule:evenodd;stroke:none;stroke-width:32;stroke-opacity:1"
       d="m 255.33784,461.33819 c 9.3995,-4.28342 18.39714,9.92813 28.46323,12.25464 3.81313,0.88131 8.68087,-1.89146 11.72848,0.56055 3.53947,2.84774 5.36629,8.99773 3.5329,13.15074 -1.45646,3.29921 -6.11954,4.08215 -9.61695,4.97982 -10.64,2.73095 -22.98434,5.43731 -32.94773,0.81617 -2.46972,-1.14549 -4.03316,-3.86576 -5.11301,-6.36179 -1.20209,-2.77858 -1.51675,-5.97621 -1.26232,-8.99224 0.48236,-5.71787 -0.0129,-14.02532 5.2154,-16.40789 z"
       id="path7006"
       inkscape:connector-curvature="0"
       sodipodi:nodetypes="aaaaaaaaa" />
    <path
       style="opacity:1;fill:#008000;fill-opacity:1;fill-rule:evenodd;stroke:none;stroke-width:32;stroke-opacity:1"
       d="m 193.48579,400.32138 c 3.64177,0.054 1.50733,0.25529 1.55602,1.52915 0.64384,16.84309 -14.94771,30.7637 -25.42706,44.12205 -1.79657,2.29014 -5.32442,4.97117 -6.31123,6.03769 l -4.70568,5.08577 c -0.59694,0 -5.73125,-5.22025 -5.99873,-9.1266 -0.98869,-14.4388 -0.39931,-30.27791 -0.59896,-45.41688 -0.0172,-1.30407 0.8384,-2.10628 1.81644,-2.23117 2.07735,-0.26527 26.66689,-0.19279 39.6692,-1e-5 z"
       id="path7008"
       inkscape:connector-curvature="0"
       sodipodi:nodetypes="sssszssss" />
    <path
       style="opacity:1;fill:#df993e;fill-opacity:0.38554215;fill-rule:evenodd;stroke:none;stroke-width:32;stroke-opacity:1"
       d="m 206.33456,461.48351 c 3.89942,1.03331 7.85517,2.49342 11.88436,2.28808 3.95268,-0.20147 8.27647,-5.88416 11.3692,-3.41831 4.42838,3.53079 2.78173,12.88729 -1.17937,16.93383 -3.69837,3.77814 -10.61111,2.46442 -15.80607,1.46126 -3.8273,-0.73907 -6.93612,-3.55458 -10.40303,-5.33412 -3.22075,-1.65319 -8.60349,-1.50529 -9.6601,-4.96373 -1.09172,-3.57336 1.92556,-8.46822 5.41473,-9.81759 2.75187,-1.06423 5.52794,2.09475 8.38028,2.85058 z"
       id="path7010"
       inkscape:connector-curvature="0"
       sodipodi:nodetypes="aaaaaaaaa" />
    <path
       style="opacity:1;fill:#008000;fill-opacity:1;fill-rule:evenodd;stroke:none;stroke-width:32;stroke-opacity:1"
       d="m 200.48258,432.9691 c -4.83545,16.45022 -20.87729,41.17437 -24.81133,43.52769 -5.47502,3.27514 9.0828,-31.14067 9.8033,-43.23352 0.41869,-7.02725 -3.47415,-32.7211 11.61347,-32.93771 24.78113,-0.35578 11.35313,5.56844 3.39456,32.64354 z"
       id="path7012"
       inkscape:connector-curvature="0"
       sodipodi:nodetypes="sssss" />
    <path
       style="opacity:1;fill:#008000;fill-opacity:1;fill-rule:evenodd;stroke:none;stroke-width:32;stroke-opacity:1"
       d="m 205.13355,400.33949 15.69,0 c 10.47464,-0.14708 2.73412,0.84542 2.83269,2.02316 l 2.97793,35.57897 c 0.0986,1.17774 -0.50389,13.9626 -1.26896,13.04752 l -7.565,-9.04829 c -0.76507,-0.91508 -2.84169,-8.81788 -3.24937,-9.92742 l -10.89458,-29.65078 c -0.40768,-1.10955 -5.00303,-2.02316 1.47729,-2.02316 z"
       id="path7014"
       inkscape:connector-curvature="0"
       sodipodi:nodetypes="scsssssss" />
    <path
       style="opacity:1;fill:#008000;fill-opacity:1;fill-rule:evenodd;stroke:none;stroke-width:32;stroke-opacity:1"
       d="m 283.25975,410.60981 c -0.32916,8.54842 -42.29785,33.78743 -46.55842,34.86112 -5.88278,1.4825 24.41384,-23.31674 14.37094,-23.31674 -8.79538,0 -35.75136,27.5121 -47.72256,28.2769 -3.34863,0.21393 25.4082,-30.10221 20.95175,-36.70118 -9.54758,-14.13776 -16.58809,-13.5333 27.60415,-13.5026 44.19223,0.0308 31.86007,-2.75664 31.35414,10.3825 z"
       id="path7016"
       inkscape:connector-curvature="0"
       sodipodi:nodetypes="ssssszs" />
    <path
       style="opacity:1;fill:#008000;fill-opacity:1;fill-rule:evenodd;stroke:none;stroke-width:32;stroke-opacity:1"
       d="m 277.96314,400.32609 28.11163,0 c 1.19386,0 -3.84335,10.55733 2.15499,19.64401 l 4.2721,6.47165 c 5.99834,9.08667 -9.96933,22.72688 -12.42708,16.55528 -9.14541,-22.96476 -7.24942,21.70573 -14.74595,2.64749 -3.9925,-10.15001 -4.93266,-15.41756 -6.86904,-9.49529 -1.90979,5.84096 -11.24495,25.1512 -1.32582,-18.38538 1.48468,-6.51647 -0.3647,-17.43776 0.82917,-17.43776 z"
       id="path7018"
       inkscape:connector-curvature="0"
       sodipodi:nodetypes="sssssssss" />
    <path
       sodipodi:nodetypes="sssszssss"
       inkscape:connector-curvature="0"
       id="path7020"
       d="m 289.48571,400.32138 c 3.64178,0.054 1.50734,0.25529 1.55603,1.52915 0.64384,16.84309 -14.94772,30.7637 -25.42706,44.12205 -1.79657,2.29014 -5.32442,4.97117 -6.31123,6.03769 l -4.70568,5.08577 c -0.59694,0 -5.73126,-5.22025 -5.99874,-9.1266 -0.98869,-14.4388 -0.39931,-30.27791 -0.59896,-45.41688 -0.0172,-1.30407 0.8384,-2.10628 1.81645,-2.23117 2.07735,-0.26527 26.66688,-0.19279 39.66919,-1e-5 z"
       style="opacity:1;fill:#008000;fill-opacity:1;fill-rule:evenodd;stroke:none;stroke-width:32;stroke-opacity:1" />
    <path
       sodipodi:nodetypes="sssss"
       inkscape:connector-curvature="0"
       id="path7022"
       d="m 296.48251,432.9691 c -4.83545,16.45022 -20.8773,41.17437 -24.81133,43.52769 -5.47502,3.27514 9.0828,-31.14067 9.8033,-43.23352 0.41869,-7.02725 -3.47415,-32.7211 11.61347,-32.93771 24.78113,-0.35578 11.35313,5.56844 3.39456,32.64354 z"
       style="opacity:1;fill:#008000;fill-opacity:1;fill-rule:evenodd;stroke:none;stroke-width:32;stroke-opacity:1" />
    <path
       sodipodi:nodetypes="scsssssss"
       inkscape:connector-curvature="0"
       id="path7024"
       d="m 301.13347,400.33949 15.69001,0 c 10.47464,-0.14708 2.73412,0.84542 2.83269,2.02316 l 2.97793,35.57897 c 0.0986,1.17774 -0.50389,13.9626 -1.26896,13.04752 l -7.565,-9.04829 c -0.76507,-0.91508 -2.84169,-8.81788 -3.24937,-9.92742 l -10.89458,-29.65078 c -0.40768,-1.10955 -5.00303,-2.02316 1.47728,-2.02316 z"
       style="opacity:1;fill:#008000;fill-opacity:1;fill-rule:evenodd;stroke:none;stroke-width:32;stroke-opacity:1" />
    <path
       sodipodi:nodetypes="ssssszs"
       inkscape:connector-curvature="0"
       id="path7026"
       d="m 379.25968,410.60981 c -0.32916,8.54842 -42.29785,33.78743 -46.55842,34.86112 -5.88278,1.4825 24.41384,-23.31674 14.37094,-23.31674 -8.79538,0 -35.75136,27.5121 -47.72256,28.2769 -3.34863,0.21393 25.4082,-30.10221 20.95175,-36.70118 -9.54758,-14.13776 -16.58809,-13.5333 27.60415,-13.5026 44.19223,0.0308 31.86007,-2.75664 31.35414,10.3825 z"
       style="opacity:1;fill:#008000;fill-opacity:1;fill-rule:evenodd;stroke:none;stroke-width:32;stroke-opacity:1" />
    <path
       sodipodi:nodetypes="sssssssss"
       inkscape:connector-curvature="0"
       id="path7028"
       d="m 373.96307,400.32609 28.11163,0 c 1.19386,0 -3.84335,10.55733 2.15499,19.64401 l 4.27209,6.47165 c 5.99835,9.08667 -9.96932,22.72688 -12.42708,16.55528 -9.1454,-22.96476 -7.24941,21.70573 -14.74595,2.64749 -3.99249,-10.15001 -4.93265,-15.41756 -6.86903,-9.49529 -1.90979,5.84096 -11.24495,25.1512 -1.32582,-18.38538 1.48468,-6.51647 -0.3647,-17.43776 0.82917,-17.43776 z"
       style="opacity:1;fill:#008000;fill-opacity:1;fill-rule:evenodd;stroke:none;stroke-width:32;stroke-opacity:1" />
    <path
       sodipodi:nodetypes="saaaassss"
       inkscape:connector-curvature="0"
       id="path7030"
       d="m 21.194826,497.80208 c 11.970785,3.88282 29.041178,0.64862 36.745705,10.81636 7.02336,9.26881 -3.738394,23.99969 0.393426,34.86548 3.807203,10.01212 18.619187,13.84865 21.083318,24.27166 1.278261,5.4069 0.05544,12.49958 -4.143424,16.14487 -11.304558,9.81421 -29.913795,4.57631 -44.662366,4.99217 -2.29454,0.0647 -17.119191,-6.92978 -18.726745,-15.72886 C 8.3291902,553.70216 8.9402959,535.0726 5.3847443,515.61101 3.7771897,506.81193 19.011683,497.09397 21.194826,497.80208 Z"
       style="opacity:1;fill:#764321;fill-opacity:0.55421687;fill-rule:evenodd;stroke:none;stroke-width:32;stroke-opacity:1" />
    <path
       sodipodi:nodetypes="aaaaaaaaa"
       inkscape:connector-curvature="0"
       id="path7032"
       d="m 247.21286,553.88158 c 28.52419,-16.66412 65.44737,-25.46099 97.55642,-17.64996 6.86287,1.66951 12.85938,7.05713 16.77643,12.92598 6.0963,9.13401 12.97817,21.76067 8.54419,31.80458 -3.52239,7.979 -14.78859,9.9168 -23.25823,12.04348 -33.25458,8.35008 -69.31859,8.58728 -102.85972,1.47083 -5.70892,-1.21127 -13.51663,-2.01429 -15.89255,-7.33683 -2.30602,-5.16596 2.31675,-11.23737 5.00868,-16.21377 3.50973,-6.48824 7.75019,-13.32022 14.12478,-17.04431 z"
       style="opacity:1;fill:#000000;fill-opacity:0.31927712;fill-rule:evenodd;stroke:none;stroke-width:32;stroke-opacity:1" />
    <path
       sodipodi:nodetypes="aaaaaaaaa"
       inkscape:connector-curvature="0"
       id="path7034"
       d="m 145.83104,518.51601 c 9.24461,0.0438 18.80687,2.39793 27.73418,0 8.54432,-2.29507 15.22193,-17.57932 22.96135,-13.2976 10.34921,5.72555 7.70907,25.56938 1.17851,35.42017 -6.44527,9.72216 -21.49106,9.26623 -32.68406,12.58902 -7.23135,2.14671 -14.7744,3.06053 -22.13626,4.70665 -5.11264,1.14319 -10.61183,5.92341 -15.30105,3.59012 -14.16072,-7.04619 -27.85448,-30.17061 -19.15079,-43.36265 6.85794,-10.39449 24.93166,0.29524 37.39812,0.35429 z"
       style="opacity:1;fill:#df993e;fill-opacity:0.38554215;fill-rule:evenodd;stroke:none;stroke-width:32;stroke-opacity:1" />
    <rect
       transform="scale(-1,1)"
       ry="2.0231597"
       rx="2.1549907"
       y="400.31348"
       x="-790.00964"
       height="199.68652"
       width="399.99969"
       id="rect7036"
       style="opacity:1;fill:#502d16;fill-opacity:1;fill-rule:evenodd;stroke:none;stroke-width:32;stroke-opacity:1" />
    <path
       style="opacity:1;fill:#000000;fill-opacity:0.31927712;fill-rule:evenodd;stroke:none;stroke-width:32;stroke-opacity:1"
       d="m 556.02473,424.52761 18.08441,-3.44032 c 2.25023,-0.42807 19.52759,4.85368 20.15743,7.05264 l 3.44571,12.03012 c 0.62984,2.19897 -10.63081,7.417 -12.92143,7.39668 l -38.7587,-0.34403 c -2.29061,-0.0204 -9.9364,-5.9436 -9.13113,-8.08475 l 3.10114,-8.24576 c 0.80526,-2.14115 13.77234,-5.9365 16.02257,-6.36458 z"
       id="path7038"
       inkscape:connector-curvature="0"
       sodipodi:nodetypes="sssssssss" />
    <path
       sodipodi:nodetypes="sssssssss"
       inkscape:connector-curvature="0"
       id="path7040"
       d="m 438.34325,429.13957 43.73648,-8.32027 c 5.44209,-1.03529 47.22673,11.73843 48.74996,17.05656 l 8.33333,29.09436 c 1.52324,5.31812 -25.7102,17.93775 -31.24998,17.88857 l -93.73643,-0.83202 c -5.53978,-0.0492 -24.03082,-14.37435 -22.08332,-19.55264 l 7.49999,-19.94206 c 1.9475,-5.17828 33.30788,-14.35721 38.74997,-15.3925 z"
       style="opacity:1;fill:#000000;fill-opacity:0.31927712;fill-rule:evenodd;stroke:none;stroke-width:32;stroke-opacity:1" />
    <path
       style="opacity:1;fill:#764321;fill-opacity:0.55421687;fill-rule:evenodd;stroke:none;stroke-width:32;stroke-opacity:1"
       d="m 669.01357,425.50713 c 5.77047,-4.47126 16.14252,-4.47126 21.91297,0 1.81759,1.40836 1.81187,4.38066 1.71325,6.67567 -0.28565,6.64762 -3.00197,13.24241 -6.60304,18.84108 -1.95863,3.04512 -4.46152,6.21131 -7.83933,7.52397 -5.60349,2.17758 -13.9524,3.98895 -18.03403,-0.41957 -2.71676,-2.93435 -0.30492,-8.09231 0.66283,-11.96974 1.24305,-4.98042 4.7499,-9.14031 6.4741,-13.97574 0.77165,-2.16407 -0.10433,-5.26731 1.71325,-6.67567 z"
       id="path7042"
       inkscape:connector-curvature="0"
       sodipodi:nodetypes="aaaaaaaaa" />
    <path
       sodipodi:nodetypes="aaaaaaaaa"
       inkscape:connector-curvature="0"
       id="path7044"
       d="m 711.60246,431.5085 c 13.95564,-10.81357 39.04005,-10.81357 52.99569,0 4.39576,3.40606 4.38089,10.59443 4.14343,16.14486 -0.86235,20.15684 -7.33228,41.41825 -19.99999,57.13673 -6.25989,7.76748 -15.80342,13.33769 -25.50911,15.68113 -14.82816,3.58028 -39.2001,10.2827 -45.63,-3.52999 -4.14503,-8.90436 12.96892,-15.06447 17.22226,-23.91777 6.79947,-14.15306 8.57716,-30.20475 12.63429,-45.3701 1.4359,-5.36731 -0.25233,-12.7388 4.14343,-16.14486 z"
       style="opacity:1;fill:#764321;fill-opacity:0.55421687;fill-rule:evenodd;stroke:none;stroke-width:32;stroke-opacity:1" />
    <path
       sodipodi:nodetypes="sssszssss"
       inkscape:connector-curvature="0"
       id="path7046"
       d="m 431.4859,400.32138 c 3.64177,0.054 1.50733,0.25529 1.55603,1.52915 0.64383,16.84309 -14.94772,30.7637 -25.42707,44.12205 -1.79656,2.29014 -5.32442,4.97117 -6.31123,6.03769 l -4.70568,5.08577 c -0.59693,0 -5.73125,-5.22025 -5.99874,-9.1266 -0.98868,-14.4388 -0.3993,-30.27791 -0.59896,-45.41688 -0.0172,-1.30407 0.8384,-2.10628 1.81645,-2.23117 2.07736,-0.26527 26.66689,-0.19279 39.6692,-1e-5 z"
       style="opacity:1;fill:#008000;fill-opacity:1;fill-rule:evenodd;stroke:none;stroke-width:32;stroke-opacity:1" />
    <path
       sodipodi:nodetypes="sssss"
       inkscape:connector-curvature="0"
       id="path7048"
       d="m 438.48269,432.9691 c -4.83544,16.45022 -20.8773,41.17437 -24.81133,43.52769 -5.47501,3.27514 9.0828,-31.14067 9.8033,-43.23352 0.4187,-7.02725 -3.47415,-32.7211 11.61348,-32.93771 24.78113,-0.35578 11.35312,5.56844 3.39455,32.64354 z"
       style="opacity:1;fill:#008000;fill-opacity:1;fill-rule:evenodd;stroke:none;stroke-width:32;stroke-opacity:1" />
    <path
       sodipodi:nodetypes="scsssssss"
       inkscape:connector-curvature="0"
       id="path7050"
       d="m 443.13366,400.33949 15.69001,0 c 10.47463,-0.14708 2.73411,0.84542 2.83269,2.02316 l 2.97792,35.57897 c 0.0986,1.17774 -0.50389,13.9626 -1.26896,13.04752 l -7.56501,-9.04829 c -0.76506,-0.91508 -2.84168,-8.81788 -3.24936,-9.92742 l -10.89458,-29.65078 c -0.40768,-1.10955 -5.00303,-2.02316 1.47729,-2.02316 z"
       style="opacity:1;fill:#008000;fill-opacity:1;fill-rule:evenodd;stroke:none;stroke-width:32;stroke-opacity:1" />
    <path
       sodipodi:nodetypes="ssssszs"
       inkscape:connector-curvature="0"
       id="path7052"
       d="m 521.25986,410.60981 c -0.32916,8.54842 -42.29785,33.78743 -46.55841,34.86112 -5.88279,1.4825 24.41384,-23.31674 14.37094,-23.31674 -8.79539,0 -35.75137,27.5121 -47.72257,28.2769 -3.34863,0.21393 25.4082,-30.10221 20.95175,-36.70118 -9.54758,-14.13776 -16.58809,-13.5333 27.60415,-13.5026 44.19223,0.0308 31.86007,-2.75664 31.35414,10.3825 z"
       style="opacity:1;fill:#008000;fill-opacity:1;fill-rule:evenodd;stroke:none;stroke-width:32;stroke-opacity:1" />
    <path
       sodipodi:nodetypes="sssssssss"
       inkscape:connector-curvature="0"
       id="path7054"
       d="m 515.96326,400.32609 28.11162,0 c 1.19386,0 -3.84334,10.55733 2.15499,19.64401 l 4.2721,6.47165 c 5.99835,9.08667 -9.96932,22.72688 -12.42708,16.55528 -9.1454,-22.96476 -7.24942,21.70573 -14.74595,2.64749 -3.9925,-10.15001 -4.93266,-15.41756 -6.86903,-9.49529 -1.90979,5.84096 -11.24496,25.1512 -1.32582,-18.38538 1.48468,-6.51647 -0.3647,-17.43776 0.82917,-17.43776 z"
       style="opacity:1;fill:#008000;fill-opacity:1;fill-rule:evenodd;stroke:none;stroke-width:32;stroke-opacity:1" />
    <path
       style="opacity:1;fill:#000000;fill-opacity:0.31927712;fill-rule:evenodd;stroke:none;stroke-width:32;stroke-opacity:1"
       d="m 645.33784,461.33819 c 9.3995,-4.28342 18.39714,9.92813 28.46323,12.25464 3.81313,0.88131 8.68087,-1.89146 11.72848,0.56055 3.53947,2.84774 5.36629,8.99773 3.5329,13.15074 -1.45646,3.29921 -6.11954,4.08215 -9.61695,4.97982 -10.64,2.73095 -22.98434,5.43731 -32.94773,0.81617 -2.46972,-1.14549 -4.03316,-3.86576 -5.11301,-6.36179 -1.20209,-2.77858 -1.51675,-5.97621 -1.26232,-8.99224 0.48236,-5.71787 -0.0129,-14.02532 5.2154,-16.40789 z"
       id="path7056"
       inkscape:connector-curvature="0"
       sodipodi:nodetypes="aaaaaaaaa" />
    <path
       style="opacity:1;fill:#008000;fill-opacity:1;fill-rule:evenodd;stroke:none;stroke-width:32;stroke-opacity:1"
       d="m 583.48579,400.32138 c 3.64177,0.054 1.50733,0.25529 1.55602,1.52915 0.64384,16.84309 -14.94771,30.7637 -25.42706,44.12205 -1.79657,2.29014 -5.32442,4.97117 -6.31123,6.03769 l -4.70568,5.08577 c -0.59694,0 -5.73125,-5.22025 -5.99873,-9.1266 -0.98869,-14.4388 -0.39931,-30.27791 -0.59896,-45.41688 -0.0172,-1.30407 0.8384,-2.10628 1.81644,-2.23117 2.07735,-0.26527 26.66689,-0.19279 39.6692,-1e-5 z"
       id="path7058"
       inkscape:connector-curvature="0"
       sodipodi:nodetypes="sssszssss" />
    <path
       style="opacity:1;fill:#df993e;fill-opacity:0.38554215;fill-rule:evenodd;stroke:none;stroke-width:32;stroke-opacity:1"
       d="m 596.33456,461.48351 c 3.89942,1.03331 7.85517,2.49342 11.88436,2.28808 3.95268,-0.20147 8.27647,-5.88416 11.3692,-3.41831 4.42838,3.53079 2.78173,12.88729 -1.17937,16.93383 -3.69837,3.77814 -10.61111,2.46442 -15.80607,1.46126 -3.8273,-0.73907 -6.93612,-3.55458 -10.40303,-5.33412 -3.22075,-1.65319 -8.60349,-1.50529 -9.6601,-4.96373 -1.09172,-3.57336 1.92556,-8.46822 5.41473,-9.81759 2.75187,-1.06423 5.52794,2.09475 8.38028,2.85058 z"
       id="path7060"
       inkscape:connector-curvature="0"
       sodipodi:nodetypes="aaaaaaaaa" />
    <path
       style="opacity:1;fill:#008000;fill-opacity:1;fill-rule:evenodd;stroke:none;stroke-width:32;stroke-opacity:1"
       d="m 590.48258,432.9691 c -4.83545,16.45022 -20.87729,41.17437 -24.81133,43.52769 -5.47502,3.27514 9.0828,-31.14067 9.8033,-43.23352 0.41869,-7.02725 -3.47415,-32.7211 11.61347,-32.93771 24.78113,-0.35578 11.35313,5.56844 3.39456,32.64354 z"
       id="path7062"
       inkscape:connector-curvature="0"
       sodipodi:nodetypes="sssss" />
    <path
       style="opacity:1;fill:#008000;fill-opacity:1;fill-rule:evenodd;stroke:none;stroke-width:32;stroke-opacity:1"
       d="m 595.13355,400.33949 15.69,0 c 10.47464,-0.14708 2.73412,0.84542 2.83269,2.02316 l 2.97793,35.57897 c 0.0986,1.17774 -0.50389,13.9626 -1.26896,13.04752 l -7.565,-9.04829 c -0.76507,-0.91508 -2.84169,-8.81788 -3.24937,-9.92742 l -10.89458,-29.65078 c -0.40768,-1.10955 -5.00303,-2.02316 1.47729,-2.02316 z"
       id="path7064"
       inkscape:connector-curvature="0"
       sodipodi:nodetypes="scsssssss" />
    <path
       style="opacity:1;fill:#008000;fill-opacity:1;fill-rule:evenodd;stroke:none;stroke-width:32;stroke-opacity:1"
       d="m 673.25975,410.60981 c -0.32916,8.54842 -42.29785,33.78743 -46.55842,34.86112 -5.88278,1.4825 24.41384,-23.31674 14.37094,-23.31674 -8.79538,0 -35.75136,27.5121 -47.72256,28.2769 -3.34863,0.21393 25.4082,-30.10221 20.95175,-36.70118 -9.54758,-14.13776 -16.58809,-13.5333 27.60415,-13.5026 44.19223,0.0308 31.86007,-2.75664 31.35414,10.3825 z"
       id="path7066"
       inkscape:connector-curvature="0"
       sodipodi:nodetypes="ssssszs" />
    <path
       style="opacity:1;fill:#008000;fill-opacity:1;fill-rule:evenodd;stroke:none;stroke-width:32;stroke-opacity:1"
       d="m 667.96314,400.32609 28.11163,0 c 1.19386,0 -3.84335,10.55733 2.15499,19.64401 l 4.2721,6.47165 c 5.99834,9.08667 -9.96933,22.72688 -12.42708,16.55528 -9.14541,-22.96476 -7.24942,21.70573 -14.74595,2.64749 -3.9925,-10.15001 -4.93266,-15.41756 -6.86904,-9.49529 -1.90979,5.84096 -11.24495,25.1512 -1.32582,-18.38538 1.48468,-6.51647 -0.3647,-17.43776 0.82917,-17.43776 z"
       id="path7068"
       inkscape:connector-curvature="0"
       sodipodi:nodetypes="sssssssss" />
    <path
       sodipodi:nodetypes="sssszssss"
       inkscape:connector-curvature="0"
       id="path7070"
       d="m 679.48571,400.32138 c 3.64178,0.054 1.50734,0.25529 1.55603,1.52915 0.64384,16.84309 -14.94772,30.7637 -25.42706,44.12205 -1.79657,2.29014 -5.32442,4.97117 -6.31123,6.03769 l -4.70568,5.08577 c -0.59694,0 -5.73126,-5.22025 -5.99874,-9.1266 -0.98869,-14.4388 -0.39931,-30.27791 -0.59896,-45.41688 -0.0172,-1.30407 0.8384,-2.10628 1.81645,-2.23117 2.07735,-0.26527 26.66688,-0.19279 39.66919,-1e-5 z"
       style="opacity:1;fill:#008000;fill-opacity:1;fill-rule:evenodd;stroke:none;stroke-width:32;stroke-opacity:1" />
    <path
       sodipodi:nodetypes="sssss"
       inkscape:connector-curvature="0"
       id="path7072"
       d="m 686.48251,432.9691 c -4.83545,16.45022 -20.8773,41.17437 -24.81133,43.52769 -5.47502,3.27514 9.0828,-31.14067 9.8033,-43.23352 0.41869,-7.02725 -3.47415,-32.7211 11.61347,-32.93771 24.78113,-0.35578 11.35313,5.56844 3.39456,32.64354 z"
       style="opacity:1;fill:#008000;fill-opacity:1;fill-rule:evenodd;stroke:none;stroke-width:32;stroke-opacity:1" />
    <path
       sodipodi:nodetypes="scsssssss"
       inkscape:connector-curvature="0"
       id="path7074"
       d="m 691.13347,400.33949 15.69001,0 c 10.47464,-0.14708 2.73412,0.84542 2.83269,2.02316 l 2.97793,35.57897 c 0.0986,1.17774 -0.50389,13.9626 -1.26896,13.04752 l -7.565,-9.04829 c -0.76507,-0.91508 -2.84169,-8.81788 -3.24937,-9.92742 l -10.89458,-29.65078 c -0.40768,-1.10955 -5.00303,-2.02316 1.47728,-2.02316 z"
       style="opacity:1;fill:#008000;fill-opacity:1;fill-rule:evenodd;stroke:none;stroke-width:32;stroke-opacity:1" />
    <path
       sodipodi:nodetypes="ssssszs"
       inkscape:connector-curvature="0"
       id="path7076"
       d="m 769.25968,410.60981 c -0.32916,8.54842 -42.29785,33.78743 -46.55842,34.86112 -5.88278,1.4825 24.41384,-23.31674 14.37094,-23.31674 -8.79538,0 -35.75136,27.5121 -47.72256,28.2769 -3.34863,0.21393 25.4082,-30.10221 20.95175,-36.70118 -9.54758,-14.13776 -16.58809,-13.5333 27.60415,-13.5026 44.19223,0.0308 31.86007,-2.75664 31.35414,10.3825 z"
       style="opacity:1;fill:#008000;fill-opacity:1;fill-rule:evenodd;stroke:none;stroke-width:32;stroke-opacity:1" />
    <path
       sodipodi:nodetypes="sssssssss"
       inkscape:connector-curvature="0"
       id="path7078"
       d="m 763.96307,400.32609 28.11163,0 c 1.19386,0 -3.84335,10.55733 2.15499,19.64401 l 4.27209,6.47165 c 5.99835,9.08667 -9.96932,22.72688 -12.42708,16.55528 -9.1454,-22.96476 -7.24941,21.70573 -14.74595,2.64749 -3.99249,-10.15001 -4.93265,-15.41756 -6.86903,-9.49529 -1.90979,5.84096 -11.24495,25.1512 -1.32582,-18.38538 1.48468,-6.51647 -0.3647,-17.43776 0.82917,-17.43776 z"
       style="opacity:1;fill:#008000;fill-opacity:1;fill-rule:evenodd;stroke:none;stroke-width:32;stroke-opacity:1" />
    <path
       sodipodi:nodetypes="saaaassss"
       inkscape:connector-curvature="0"
       id="path7080"
       d="m 411.19483,497.80208 c 11.97078,3.88282 29.04117,0.64862 36.7457,10.81636 7.02336,9.26881 -3.73839,23.99969 0.39343,34.86548 3.8072,10.01212 18.61918,13.84865 21.08331,24.27166 1.27827,5.4069 0.0554,12.49958 -4.14342,16.14487 -11.30456,9.81421 -29.91379,4.57631 -44.66237,4.99217 -2.29454,0.0647 -17.11919,-6.92978 -18.72674,-15.72886 -3.55555,-19.4616 -2.94444,-38.09116 -6.5,-57.55275 -1.60755,-8.79908 13.62694,-18.51704 15.81009,-17.80893 z"
       style="opacity:1;fill:#764321;fill-opacity:0.55421687;fill-rule:evenodd;stroke:none;stroke-width:32;stroke-opacity:1" />
    <path
       sodipodi:nodetypes="aaaaaaaaa"
       inkscape:connector-curvature="0"
       id="path7082"
       d="m 637.21286,553.88158 c 28.52419,-16.66412 65.44737,-25.46099 97.55642,-17.64996 6.86287,1.66951 12.85938,7.05713 16.77643,12.92598 6.0963,9.13401 12.97817,21.76067 8.54419,31.80458 -3.52239,7.979 -14.78859,9.9168 -23.25823,12.04348 -33.25458,8.35008 -69.31859,8.58728 -102.85972,1.47083 -5.70892,-1.21127 -13.51663,-2.01429 -15.89255,-7.33683 -2.30602,-5.16596 2.31675,-11.23737 5.00868,-16.21377 3.50973,-6.48824 7.75019,-13.32022 14.12478,-17.04431 z"
       style="opacity:1;fill:#000000;fill-opacity:0.31927712;fill-rule:evenodd;stroke:none;stroke-width:32;stroke-opacity:1" />
    <path
       sodipodi:nodetypes="aaaaaaaaa"
       inkscape:connector-curvature="0"
       id="path7084"
       d="m 535.83104,518.51601 c 9.24461,0.0438 18.80687,2.39793 27.73418,0 8.54432,-2.29507 15.22193,-17.57932 22.96135,-13.2976 10.34921,5.72555 7.70907,25.56938 1.17851,35.42017 -6.44527,9.72216 -21.49106,9.26623 -32.68406,12.58902 -7.23135,2.14671 -14.7744,3.06053 -22.13626,4.70665 -5.11264,1.14319 -10.61183,5.92341 -15.30105,3.59012 -14.16072,-7.04619 -27.85448,-30.17061 -19.15079,-43.36265 6.85794,-10.39449 24.93166,0.29524 37.39812,0.35429 z"
       style="opacity:1;fill:#df993e;fill-opacity:0.38554215;fill-rule:evenodd;stroke:none;stroke-width:32;stroke-opacity:1" />
    <rect
       style="opacity:1;fill:#502d16;fill-opacity:1;fill-rule:evenodd;stroke:none;stroke-width:32;stroke-opacity:1"
       id="rect7086"
       width="399.99969"
       height="199.68652"
       x="-790.00964"
       y="400.31348"
       rx="2.1549907"
       ry="2.0231597"
       transform="scale(-1,1)" />
    <path
       sodipodi:nodetypes="sssssssss"
       inkscape:connector-curvature="0"
       id="path7088"
       d="m 556.02473,424.52761 18.08441,-3.44032 c 2.25023,-0.42807 19.52759,4.85368 20.15743,7.05264 l 3.44571,12.03012 c 0.62984,2.19897 -10.63081,7.417 -12.92143,7.39668 l -38.7587,-0.34403 c -2.29061,-0.0204 -9.9364,-5.9436 -9.13113,-8.08475 l 3.10114,-8.24576 c 0.80526,-2.14115 13.77234,-5.9365 16.02257,-6.36458 z"
       style="opacity:1;fill:#000000;fill-opacity:0.31927712;fill-rule:evenodd;stroke:none;stroke-width:32;stroke-opacity:1" />
    <path
       style="opacity:1;fill:#000000;fill-opacity:0.31927712;fill-rule:evenodd;stroke:none;stroke-width:32;stroke-opacity:1"
       d="m 438.34325,429.13957 43.73648,-8.32027 c 5.44209,-1.03529 47.22673,11.73843 48.74996,17.05656 l 8.33333,29.09436 c 1.52324,5.31812 -25.7102,17.93775 -31.24998,17.88857 l -93.73643,-0.83202 c -5.53978,-0.0492 -24.03082,-14.37435 -22.08332,-19.55264 l 7.49999,-19.94206 c 1.9475,-5.17828 33.30788,-14.35721 38.74997,-15.3925 z"
       id="path7090"
       inkscape:connector-curvature="0"
       sodipodi:nodetypes="sssssssss" />
    <path
       sodipodi:nodetypes="aaaaaaaaa"
       inkscape:connector-curvature="0"
       id="path7092"
       d="m 669.01357,425.50713 c 5.77047,-4.47126 16.14252,-4.47126 21.91297,0 1.81759,1.40836 1.81187,4.38066 1.71325,6.67567 -0.28565,6.64762 -3.00197,13.24241 -6.60304,18.84108 -1.95863,3.04512 -4.46152,6.21131 -7.83933,7.52397 -5.60349,2.17758 -13.9524,3.98895 -18.03403,-0.41957 -2.71676,-2.93435 -0.30492,-8.09231 0.66283,-11.96974 1.24305,-4.98042 4.7499,-9.14031 6.4741,-13.97574 0.77165,-2.16407 -0.10433,-5.26731 1.71325,-6.67567 z"
       style="opacity:1;fill:#764321;fill-opacity:0.55421687;fill-rule:evenodd;stroke:none;stroke-width:32;stroke-opacity:1" />
    <path
       style="opacity:1;fill:#764321;fill-opacity:0.55421687;fill-rule:evenodd;stroke:none;stroke-width:32;stroke-opacity:1"
       d="m 711.60246,431.5085 c 13.95564,-10.81357 39.04005,-10.81357 52.99569,0 4.39576,3.40606 4.38089,10.59443 4.14343,16.14486 -0.86235,20.15684 -7.33228,41.41825 -19.99999,57.13673 -6.25989,7.76748 -15.80342,13.33769 -25.50911,15.68113 -14.82816,3.58028 -39.2001,10.2827 -45.63,-3.52999 -4.14503,-8.90436 12.96892,-15.06447 17.22226,-23.91777 6.79947,-14.15306 8.57716,-30.20475 12.63429,-45.3701 1.4359,-5.36731 -0.25233,-12.7388 4.14343,-16.14486 z"
       id="path7094"
       inkscape:connector-curvature="0"
       sodipodi:nodetypes="aaaaaaaaa" />
    <path
       style="opacity:1;fill:#008000;fill-opacity:1;fill-rule:evenodd;stroke:none;stroke-width:32;stroke-opacity:1"
       d="m 429.4859,400.32138 c 3.64177,0.054 1.50733,0.25529 1.55603,1.52915 0.64383,16.84309 -14.94772,30.7637 -25.42707,44.12205 -1.79656,2.29014 -5.32442,4.97117 -6.31123,6.03769 l -4.70568,5.08577 c -0.59693,0 -5.73125,-5.22025 -5.99874,-9.1266 -0.98868,-14.4388 -0.3993,-30.27791 -0.59896,-45.41688 -0.0172,-1.30407 0.8384,-2.10628 1.81645,-2.23117 2.07736,-0.26527 26.66689,-0.19279 39.6692,-1e-5 z"
       id="path7096"
       inkscape:connector-curvature="0"
       sodipodi:nodetypes="sssszssss" />
    <path
       style="opacity:1;fill:#008000;fill-opacity:1;fill-rule:evenodd;stroke:none;stroke-width:32;stroke-opacity:1"
       d="m 436.48269,432.9691 c -4.83544,16.45022 -20.8773,41.17437 -24.81133,43.52769 -5.47501,3.27514 9.0828,-31.14067 9.8033,-43.23352 0.4187,-7.02725 -3.47415,-32.7211 11.61348,-32.93771 24.78113,-0.35578 11.35312,5.56844 3.39455,32.64354 z"
       id="path7098"
       inkscape:connector-curvature="0"
       sodipodi:nodetypes="sssss" />
    <path
       style="opacity:1;fill:#008000;fill-opacity:1;fill-rule:evenodd;stroke:none;stroke-width:32;stroke-opacity:1"
       d="m 443.13366,400.33949 15.69001,0 c 10.47463,-0.14708 2.73411,0.84542 2.83269,2.02316 l 2.97792,35.57897 c 0.0986,1.17774 -0.50389,13.9626 -1.26896,13.04752 l -7.56501,-9.04829 c -0.76506,-0.91508 -2.84168,-8.81788 -3.24936,-9.92742 l -10.89458,-29.65078 c -0.40768,-1.10955 -5.00303,-2.02316 1.47729,-2.02316 z"
       id="path7100"
       inkscape:connector-curvature="0"
       sodipodi:nodetypes="scsssssss" />
    <path
       style="opacity:1;fill:#008000;fill-opacity:1;fill-rule:evenodd;stroke:none;stroke-width:32;stroke-opacity:1"
       d="m 521.25986,410.60981 c -0.32916,8.54842 -42.29785,33.78743 -46.55841,34.86112 -5.88279,1.4825 24.41384,-23.31674 14.37094,-23.31674 -8.79539,0 -35.75137,27.5121 -47.72257,28.2769 -3.34863,0.21393 25.4082,-30.10221 20.95175,-36.70118 -9.54758,-14.13776 -16.58809,-13.5333 27.60415,-13.5026 44.19223,0.0308 31.86007,-2.75664 31.35414,10.3825 z"
       id="path7102"
       inkscape:connector-curvature="0"
       sodipodi:nodetypes="ssssszs" />
    <path
       style="opacity:1;fill:#008000;fill-opacity:1;fill-rule:evenodd;stroke:none;stroke-width:32;stroke-opacity:1"
       d="m 515.96326,400.32609 28.11162,0 c 1.19386,0 -3.84334,10.55733 2.15499,19.64401 l 4.2721,6.47165 c 5.99835,9.08667 -9.96932,22.72688 -12.42708,16.55528 -9.1454,-22.96476 -7.24942,21.70573 -14.74595,2.64749 -3.9925,-10.15001 -4.93266,-15.41756 -6.86903,-9.49529 -1.90979,5.84096 -11.24496,25.1512 -1.32582,-18.38538 1.48468,-6.51647 -0.3647,-17.43776 0.82917,-17.43776 z"
       id="path7104"
       inkscape:connector-curvature="0"
       sodipodi:nodetypes="sssssssss" />
    <path
       sodipodi:nodetypes="aaaaaaaaa"
       inkscape:connector-curvature="0"
       id="path7106"
       d="m 645.33784,461.33819 c 9.3995,-4.28342 18.39714,9.92813 28.46323,12.25464 3.81313,0.88131 8.68087,-1.89146 11.72848,0.56055 3.53947,2.84774 5.36629,8.99773 3.5329,13.15074 -1.45646,3.29921 -6.11954,4.08215 -9.61695,4.97982 -10.64,2.73095 -22.98434,5.43731 -32.94773,0.81617 -2.46972,-1.14549 -4.03316,-3.86576 -5.11301,-6.36179 -1.20209,-2.77858 -1.51675,-5.97621 -1.26232,-8.99224 0.48236,-5.71787 -0.0129,-14.02532 5.2154,-16.40789 z"
       style="opacity:1;fill:#000000;fill-opacity:0.31927712;fill-rule:evenodd;stroke:none;stroke-width:32;stroke-opacity:1" />
    <path
       sodipodi:nodetypes="sssszssss"
       inkscape:connector-curvature="0"
       id="path7108"
       d="m 583.48579,400.32138 c 3.64177,0.054 1.50733,0.25529 1.55602,1.52915 0.64384,16.84309 -14.94771,30.7637 -25.42706,44.12205 -1.79657,2.29014 -5.32442,4.97117 -6.31123,6.03769 l -4.70568,5.08577 c -0.59694,0 -5.73125,-5.22025 -5.99873,-9.1266 -0.98869,-14.4388 -0.39931,-30.27791 -0.59896,-45.41688 -0.0172,-1.30407 0.8384,-2.10628 1.81644,-2.23117 2.07735,-0.26527 26.66689,-0.19279 39.6692,-1e-5 z"
       style="opacity:1;fill:#008000;fill-opacity:1;fill-rule:evenodd;stroke:none;stroke-width:32;stroke-opacity:1" />
    <path
       sodipodi:nodetypes="aaaaaaaaa"
       inkscape:connector-curvature="0"
       id="path7110"
       d="m 596.33456,461.48351 c 3.89942,1.03331 7.85517,2.49342 11.88436,2.28808 3.95268,-0.20147 8.27647,-5.88416 11.3692,-3.41831 4.42838,3.53079 2.78173,12.88729 -1.17937,16.93383 -3.69837,3.77814 -10.61111,2.46442 -15.80607,1.46126 -3.8273,-0.73907 -6.93612,-3.55458 -10.40303,-5.33412 -3.22075,-1.65319 -8.60349,-1.50529 -9.6601,-4.96373 -1.09172,-3.57336 1.92556,-8.46822 5.41473,-9.81759 2.75187,-1.06423 5.52794,2.09475 8.38028,2.85058 z"
       style="opacity:1;fill:#df993e;fill-opacity:0.38554215;fill-rule:evenodd;stroke:none;stroke-width:32;stroke-opacity:1" />
    <path
       sodipodi:nodetypes="sssss"
       inkscape:connector-curvature="0"
       id="path7112"
       d="m 590.48258,432.9691 c -4.83545,16.45022 -20.87729,41.17437 -24.81133,43.52769 -5.47502,3.27514 9.0828,-31.14067 9.8033,-43.23352 0.41869,-7.02725 -3.47415,-32.7211 11.61347,-32.93771 24.78113,-0.35578 11.35313,5.56844 3.39456,32.64354 z"
       style="opacity:1;fill:#008000;fill-opacity:1;fill-rule:evenodd;stroke:none;stroke-width:32;stroke-opacity:1" />
    <path
       sodipodi:nodetypes="scsssssss"
       inkscape:connector-curvature="0"
       id="path7114"
       d="m 595.13355,400.33949 15.69,0 c 10.47464,-0.14708 2.73412,0.84542 2.83269,2.02316 l 2.97793,35.57897 c 0.0986,1.17774 -0.50389,13.9626 -1.26896,13.04752 l -7.565,-9.04829 c -0.76507,-0.91508 -2.84169,-8.81788 -3.24937,-9.92742 l -10.89458,-29.65078 c -0.40768,-1.10955 -5.00303,-2.02316 1.47729,-2.02316 z"
       style="opacity:1;fill:#008000;fill-opacity:1;fill-rule:evenodd;stroke:none;stroke-width:32;stroke-opacity:1" />
    <path
       sodipodi:nodetypes="ssssszs"
       inkscape:connector-curvature="0"
       id="path7116"
       d="m 673.25975,410.60981 c -0.32916,8.54842 -42.29785,33.78743 -46.55842,34.86112 -5.88278,1.4825 24.41384,-23.31674 14.37094,-23.31674 -8.79538,0 -35.75136,27.5121 -47.72256,28.2769 -3.34863,0.21393 25.4082,-30.10221 20.95175,-36.70118 -9.54758,-14.13776 -16.58809,-13.5333 27.60415,-13.5026 44.19223,0.0308 31.86007,-2.75664 31.35414,10.3825 z"
       style="opacity:1;fill:#008000;fill-opacity:1;fill-rule:evenodd;stroke:none;stroke-width:32;stroke-opacity:1" />
    <path
       sodipodi:nodetypes="sssssssss"
       inkscape:connector-curvature="0"
       id="path7118"
       d="m 667.96314,400.32609 28.11163,0 c 1.19386,0 -3.84335,10.55733 2.15499,19.64401 l 4.2721,6.47165 c 5.99834,9.08667 -9.96933,22.72688 -12.42708,16.55528 -9.14541,-22.96476 -7.24942,21.70573 -14.74595,2.64749 -3.9925,-10.15001 -4.93266,-15.41756 -6.86904,-9.49529 -1.90979,5.84096 -11.24495,25.1512 -1.32582,-18.38538 1.48468,-6.51647 -0.3647,-17.43776 0.82917,-17.43776 z"
       style="opacity:1;fill:#008000;fill-opacity:1;fill-rule:evenodd;stroke:none;stroke-width:32;stroke-opacity:1" />
    <path
       style="opacity:1;fill:#008000;fill-opacity:1;fill-rule:evenodd;stroke:none;stroke-width:32;stroke-opacity:1"
       d="m 679.48571,400.32138 c 3.64178,0.054 1.50734,0.25529 1.55603,1.52915 0.64384,16.84309 -14.94772,30.7637 -25.42706,44.12205 -1.79657,2.29014 -5.32442,4.97117 -6.31123,6.03769 l -4.70568,5.08577 c -0.59694,0 -5.73126,-5.22025 -5.99874,-9.1266 -0.98869,-14.4388 -0.39931,-30.27791 -0.59896,-45.41688 -0.0172,-1.30407 0.8384,-2.10628 1.81645,-2.23117 2.07735,-0.26527 26.66688,-0.19279 39.66919,-1e-5 z"
       id="path7120"
       inkscape:connector-curvature="0"
       sodipodi:nodetypes="sssszssss" />
    <path
       style="opacity:1;fill:#008000;fill-opacity:1;fill-rule:evenodd;stroke:none;stroke-width:32;stroke-opacity:1"
       d="m 686.48251,432.9691 c -4.83545,16.45022 -20.8773,41.17437 -24.81133,43.52769 -5.47502,3.27514 9.0828,-31.14067 9.8033,-43.23352 0.41869,-7.02725 -3.47415,-32.7211 11.61347,-32.93771 24.78113,-0.35578 11.35313,5.56844 3.39456,32.64354 z"
       id="path7122"
       inkscape:connector-curvature="0"
       sodipodi:nodetypes="sssss" />
    <path
       style="opacity:1;fill:#008000;fill-opacity:1;fill-rule:evenodd;stroke:none;stroke-width:32;stroke-opacity:1"
       d="m 691.13347,400.33949 15.69001,0 c 10.47464,-0.14708 2.73412,0.84542 2.83269,2.02316 l 2.97793,35.57897 c 0.0986,1.17774 -0.50389,13.9626 -1.26896,13.04752 l -7.565,-9.04829 c -0.76507,-0.91508 -2.84169,-8.81788 -3.24937,-9.92742 l -10.89458,-29.65078 c -0.40768,-1.10955 -5.00303,-2.02316 1.47728,-2.02316 z"
       id="path7124"
       inkscape:connector-curvature="0"
       sodipodi:nodetypes="scsssssss" />
    <path
       style="opacity:1;fill:#008000;fill-opacity:1;fill-rule:evenodd;stroke:none;stroke-width:32;stroke-opacity:1"
       d="m 769.25968,410.60981 c -0.32916,8.54842 -42.29785,33.78743 -46.55842,34.86112 -5.88278,1.4825 24.41384,-23.31674 14.37094,-23.31674 -8.79538,0 -35.75136,27.5121 -47.72256,28.2769 -3.34863,0.21393 25.4082,-30.10221 20.95175,-36.70118 -9.54758,-14.13776 -16.58809,-13.5333 27.60415,-13.5026 44.19223,0.0308 31.86007,-2.75664 31.35414,10.3825 z"
       id="path7126"
       inkscape:connector-curvature="0"
       sodipodi:nodetypes="ssssszs" />
    <path
       style="opacity:1;fill:#008000;fill-opacity:1;fill-rule:evenodd;stroke:none;stroke-width:32;stroke-opacity:1"
       d="m 763.96307,400.32609 28.11163,0 c 1.19386,0 -3.84335,10.55733 2.15499,19.64401 l 4.27209,6.47165 c 5.99835,9.08667 -9.96932,22.72688 -12.42708,16.55528 -9.1454,-22.96476 -7.24941,21.70573 -14.74595,2.64749 -3.99249,-10.15001 -4.93265,-15.41756 -6.86903,-9.49529 -1.90979,5.84096 -11.24495,25.1512 -1.32582,-18.38538 1.48468,-6.51647 -0.3647,-17.43776 0.82917,-17.43776 z"
       id="path7128"
       inkscape:connector-curvature="0"
       sodipodi:nodetypes="sssssssss" />
    <path
       style="opacity:1;fill:#764321;fill-opacity:0.55421687;fill-rule:evenodd;stroke:none;stroke-width:32;stroke-opacity:1"
       d="m 411.19483,497.80208 c 11.97078,3.88282 29.04117,0.64862 36.7457,10.81636 7.02336,9.26881 -3.73839,23.99969 0.39343,34.86548 3.8072,10.01212 18.61918,13.84865 21.08331,24.27166 1.27827,5.4069 0.0554,12.49958 -4.14342,16.14487 -11.30456,9.81421 -29.91379,4.57631 -44.66237,4.99217 -2.29454,0.0647 -17.11919,-6.92978 -18.72674,-15.72886 -3.55555,-19.4616 -2.94444,-38.09116 -6.5,-57.55275 -1.60755,-8.79908 13.62694,-18.51704 15.81009,-17.80893 z"
       id="path7130"
       inkscape:connector-curvature="0"
       sodipodi:nodetypes="saaaassss" />
    <path
       style="opacity:1;fill:#000000;fill-opacity:0.31927712;fill-rule:evenodd;stroke:none;stroke-width:32;stroke-opacity:1"
       d="m 637.21286,553.88158 c 28.52419,-16.66412 65.44737,-25.46099 97.55642,-17.64996 6.86287,1.66951 12.85938,7.05713 16.77643,12.92598 6.0963,9.13401 12.97817,21.76067 8.54419,31.80458 -3.52239,7.979 -14.78859,9.9168 -23.25823,12.04348 -33.25458,8.35008 -69.31859,8.58728 -102.85972,1.47083 -5.70892,-1.21127 -13.51663,-2.01429 -15.89255,-7.33683 -2.30602,-5.16596 2.31675,-11.23737 5.00868,-16.21377 3.50973,-6.48824 7.75019,-13.32022 14.12478,-17.04431 z"
       id="path7132"
       inkscape:connector-curvature="0"
       sodipodi:nodetypes="aaaaaaaaa" />
    <path
       style="opacity:1;fill:#df993e;fill-opacity:0.38554215;fill-rule:evenodd;stroke:none;stroke-width:32;stroke-opacity:1"
       d="m 535.83104,518.51601 c 9.24461,0.0438 18.80687,2.39793 27.73418,0 8.54432,-2.29507 15.22193,-17.57932 22.96135,-13.2976 10.34921,5.72555 7.70907,25.56938 1.17851,35.42017 -6.44527,9.72216 -21.49106,9.26623 -32.68406,12.58902 -7.23135,2.14671 -14.7744,3.06053 -22.13626,4.70665 -5.11264,1.14319 -10.61183,5.92341 -15.30105,3.59012 -14.16072,-7.04619 -27.85448,-30.17061 -19.15079,-43.36265 6.85794,-10.39449 24.93166,0.29524 37.39812,0.35429 z"
       id="path7134"
       inkscape:connector-curvature="0"
       sodipodi:nodetypes="aaaaaaaaa" />
  </g>
</svg>
