<?xml version="1.0" encoding="UTF-8" standalone="no"?>
<!-- Created with Inkscape (http://www.inkscape.org/) -->

<svg
   xmlns:dc="http://purl.org/dc/elements/1.1/"
   xmlns:cc="http://creativecommons.org/ns#"
   xmlns:rdf="http://www.w3.org/1999/02/22-rdf-syntax-ns#"
   xmlns:svg="http://www.w3.org/2000/svg"
   xmlns="http://www.w3.org/2000/svg"
   xmlns:sodipodi="http://sodipodi.sourceforge.net/DTD/sodipodi-0.dtd"
   xmlns:inkscape="http://www.inkscape.org/namespaces/inkscape"
   width="210mm"
   height="297mm"
   viewBox="0 0 744.09448819 1052.3622047"
   id="svg3336"
   version="1.1"
   inkscape:version="0.91 r13725"
   sodipodi:docname="head.svg">
  <defs
     id="defs3338" />
  <sodipodi:namedview
     id="base"
     pagecolor="#ffffff"
     bordercolor="#666666"
     borderopacity="1.0"
     inkscape:pageopacity="0.0"
     inkscape:pageshadow="2"
     inkscape:zoom="0.98994949"
     inkscape:cx="54.213071"
     inkscape:cy="194.4526"
     inkscape:document-units="px"
     inkscape:current-layer="layer1"
     showgrid="false"
     inkscape:window-width="1366"
     inkscape:window-height="705"
     inkscape:window-x="-8"
     inkscape:window-y="-8"
     inkscape:window-maximized="1" />
  <metadata
     id="metadata3341">
    <rdf:RDF>
      <cc:Work
         rdf:about="">
        <dc:format>image/svg+xml</dc:format>
        <dc:type
           rdf:resource="http://purl.org/dc/dcmitype/StillImage" />
        <dc:title></dc:title>
      </cc:Work>
    </rdf:RDF>
  </metadata>
  <g
     inkscape:label="Layer 1"
     inkscape:groupmode="layer"
     id="layer1">
    <path
       style="opacity:1;fill:#ffb380;fill-opacity:1;stroke:none;stroke-width:10;stroke-linecap:butt;stroke-opacity:1"
       d="m 302.57314,886.01436 c 0,44.97685 19.8042,115.49004 -10.11649,144.96474 -29.92068,29.4746 -83.3538,19.8971 -129.01122,19.8971 -45.65743,0 -99.131073,-36.1071 -129.051761,-65.58172 C 4.4729823,955.8198 0,911.12833 0,866.15149 0,821.17465 6.4488006,802.16518 36.369488,772.6905 66.290175,743.21582 103.67359,744.84823 149.33102,744.84823 c 45.65743,0 84.97614,-9.57755 114.89682,19.89712 29.92069,29.47468 38.3453,76.29217 38.3453,121.26901 z"
       id="path3344"
       inkscape:connector-curvature="0"
       sodipodi:nodetypes="sssssssss" />
    <ellipse
       style="opacity:1;fill:#ffffff;fill-opacity:1;stroke:none;stroke-width:10;stroke-linecap:butt;stroke-opacity:1"
       id="path3349"
       cx="96.642632"
       cy="843.70837"
       rx="31.937256"
       ry="39.326481" />
    <ellipse
       style="opacity:1;fill:#000000;fill-opacity:1;stroke:none;stroke-width:10;stroke-linecap:butt;stroke-opacity:1"
       id="path3351"
       cx="102.96524"
       cy="844.35223"
       rx="4.9901962"
       ry="4.9158101" />
    <ellipse
       ry="39.326481"
       rx="31.937256"
       cy="843.70837"
       cx="96.642632"
       id="ellipse3353"
       style="opacity:1;fill:#ffffff;fill-opacity:1;stroke:none;stroke-width:10;stroke-linecap:butt;stroke-opacity:1" />
    <ellipse
       cy="844.35223"
       cx="102.96524"
       id="circle3355"
       style="opacity:1;fill:#000000;fill-opacity:1;stroke:none;stroke-width:10;stroke-linecap:butt;stroke-opacity:1"
       rx="4.9901962"
       ry="4.9158101" />
    <ellipse
       ry="39.326481"
       rx="31.937256"
       cy="843.70837"
       cx="222.39558"
       id="ellipse3359"
       style="opacity:1;fill:#ffffff;fill-opacity:1;stroke:none;stroke-width:10;stroke-linecap:butt;stroke-opacity:1" />
    <ellipse
       cy="844.35223"
       cx="228.71819"
       id="circle3361"
       style="opacity:1;fill:#000000;fill-opacity:1;stroke:none;stroke-width:10;stroke-linecap:butt;stroke-opacity:1"
       rx="4.9901962"
       ry="4.9158101" />
    <ellipse
       style="opacity:1;fill:#ffffff;fill-opacity:1;stroke:none;stroke-width:10;stroke-linecap:butt;stroke-opacity:1"
       id="ellipse3363"
       cx="222.39558"
       cy="843.70837"
       rx="31.937256"
       ry="39.326481" />
    <ellipse
       style="opacity:1;fill:#000000;fill-opacity:1;stroke:none;stroke-width:10;stroke-linecap:butt;stroke-opacity:1"
       id="circle3365"
       cx="228.71819"
       cy="844.35223"
       rx="4.9901962"
       ry="4.9158101" />
    <path
       style="opacity:1;fill:#ff5555;fill-opacity:1;stroke:none;stroke-width:10;stroke-linecap:butt;stroke-opacity:1"
       d="m 283.06746,977.56192 c 0,9.30832 1.18225,21.94897 -17.65275,28.04908 -18.835,6.0999 -52.69705,5.6593 -81.43829,5.6593 -28.74124,0 -75.88969,6.8235 -91.703831,-4.9572 -13.8448,-10.3135 -17.652759,-19.44285 -17.652749,-28.75117 0,-9.30833 -1.895126,-22.65124 16.93987,-28.75126 18.835,-6.10002 55.83374,-2.14813 84.57497,-2.14813 28.74124,0 75.43522,-7.4632 94.27022,-1.36317 18.83499,6.10002 12.66256,22.95422 12.66256,32.26255 z"
       id="path3367"
       inkscape:connector-curvature="0"
       sodipodi:nodetypes="sssssssss" />
    <path
       style="opacity:1;fill:#f9f9f9;fill-opacity:1;stroke:none;stroke-width:10;stroke-linecap:butt;stroke-opacity:1"
       d="m 283.60211,960.00545 c 0,3.49062 -6.12745,5.94853 -25.54299,8.23603 -19.41552,2.28751 -46.23783,3.70236 -75.86492,3.70236 -29.6271,0 -60.01382,-0.53702 -79.42934,-2.82453 -19.41553,-2.28751 -24.763543,-4.75376 -25.008342,-8.23604 -0.35646,-5.0707 5.818309,-11.39839 20.909211,-13.67854 24.115551,-3.64372 52.832021,-1.77116 82.459141,-1.77116 29.62711,0 57.21356,-2.92455 76.75605,-2.26684 21.01952,0.70744 25.72119,10.71462 25.72119,16.83872 z"
       id="path3373"
       inkscape:connector-curvature="0"
       sodipodi:nodetypes="sssssssss" />
    <path
       sodipodi:nodetypes="sssssssss"
       inkscape:connector-curvature="0"
       id="path3376"
       d="m 281.08418,992.43759 c -0.0111,-3.337 -5.89763,-4.01469 -25.41712,-5.10645 -19.51949,-1.09178 -45.79792,0.98312 -75.41935,0.72976 -31.17829,-0.26668 -53.67225,-3.41935 -72.91463,-0.14594 -19.242375,3.27341 -22.649272,6.10258 -22.682706,9.43888 -0.0487,4.85816 9.942507,11.91946 19.027156,13.80766 25.48981,5.2979 48.03828,-0.29 77.1085,1.0249 29.59139,1.3383 60.80986,-0.9932 79.87023,-5.2606 14.21529,-3.1826 20.44242,-10.13729 20.42792,-14.48821 z"
       style="opacity:1;fill:#f9f9f9;fill-opacity:1;stroke:none;stroke-width:10;stroke-linecap:butt;stroke-opacity:1" />
  </g>
</svg>
