<?xml version="1.0" encoding="UTF-8" standalone="no"?>
<!-- Created with Inkscape (http://www.inkscape.org/) -->

<svg
   xmlns:dc="http://purl.org/dc/elements/1.1/"
   xmlns:cc="http://creativecommons.org/ns#"
   xmlns:rdf="http://www.w3.org/1999/02/22-rdf-syntax-ns#"
   xmlns:svg="http://www.w3.org/2000/svg"
   xmlns="http://www.w3.org/2000/svg"
   xmlns:sodipodi="http://sodipodi.sourceforge.net/DTD/sodipodi-0.dtd"
   xmlns:inkscape="http://www.inkscape.org/namespaces/inkscape"
   width="210mm"
   height="297mm"
   viewBox="0 0 744.09448819 1052.3622047"
   id="svg3336"
   version="1.1"
   inkscape:version="0.91 r13725"
   sodipodi:docname="head_2.svg">
  <defs
     id="defs3338" />
  <sodipodi:namedview
     id="base"
     pagecolor="#ffffff"
     bordercolor="#666666"
     borderopacity="1.0"
     inkscape:pageopacity="0.0"
     inkscape:pageshadow="2"
     inkscape:zoom="0.7"
     inkscape:cx="45.160048"
     inkscape:cy="452.60186"
     inkscape:document-units="px"
     inkscape:current-layer="layer1"
     showgrid="false"
     inkscape:window-width="1366"
     inkscape:window-height="705"
     inkscape:window-x="-8"
     inkscape:window-y="-8"
     inkscape:window-maximized="1" />
  <metadata
     id="metadata3341">
    <rdf:RDF>
      <cc:Work
         rdf:about="">
        <dc:format>image/svg+xml</dc:format>
        <dc:type
           rdf:resource="http://purl.org/dc/dcmitype/StillImage" />
        <dc:title></dc:title>
      </cc:Work>
    </rdf:RDF>
  </metadata>
  <g
     inkscape:label="Layer 1"
     inkscape:groupmode="layer"
     id="layer1">
    <path
       style="opacity:1;fill:#ffb380;fill-opacity:1;stroke:none;stroke-width:10;stroke-linecap:butt;stroke-opacity:1"
       d="m 302.57314,886.01436 c 0,44.97685 19.8042,115.49004 -10.11649,144.96474 -29.92068,29.4746 -83.3538,19.8971 -129.01122,19.8971 -45.65743,0 -99.131073,-36.1071 -129.051761,-65.58172 C 4.4729823,955.8198 0,911.12833 0,866.15149 0,821.17465 6.4488006,802.16518 36.369488,772.6905 66.290175,743.21582 103.67359,744.84823 149.33102,744.84823 c 45.65743,0 84.97614,-9.57755 114.89682,19.89712 29.92069,29.47468 38.3453,76.29217 38.3453,121.26901 z"
       id="path3344"
       inkscape:connector-curvature="0"
       sodipodi:nodetypes="sssssssss"
       inkscape:export-filename="C:\Users\Bruno\head.png"
       inkscape:export-xdpi="18.640779"
       inkscape:export-ydpi="18.640779" />
    <ellipse
       style="opacity:1;fill:#ffffff;fill-opacity:1;stroke:none;stroke-width:10;stroke-linecap:butt;stroke-opacity:1"
       id="path3349"
       cx="96.642632"
       cy="843.70837"
       rx="31.937256"
       ry="39.326481"
       inkscape:export-filename="C:\Users\Bruno\head.png"
       inkscape:export-xdpi="18.640779"
       inkscape:export-ydpi="18.640779" />
    <ellipse
       style="opacity:1;fill:#000000;fill-opacity:1;stroke:none;stroke-width:10;stroke-linecap:butt;stroke-opacity:1"
       id="path3351"
       cx="102.96524"
       cy="844.35223"
       rx="4.9901962"
       ry="4.9158101"
       inkscape:export-filename="C:\Users\Bruno\head.png"
       inkscape:export-xdpi="18.640779"
       inkscape:export-ydpi="18.640779" />
    <ellipse
       ry="39.326481"
       rx="31.937256"
       cy="843.70837"
       cx="96.642632"
       id="ellipse3353"
       style="opacity:1;fill:#ffffff;fill-opacity:1;stroke:none;stroke-width:10;stroke-linecap:butt;stroke-opacity:1"
       inkscape:export-filename="C:\Users\Bruno\head.png"
       inkscape:export-xdpi="18.640779"
       inkscape:export-ydpi="18.640779" />
    <ellipse
       cy="844.35223"
       cx="102.96524"
       id="circle3355"
       style="opacity:1;fill:#000000;fill-opacity:1;stroke:none;stroke-width:10;stroke-linecap:butt;stroke-opacity:1"
       rx="4.9901962"
       ry="4.9158101"
       inkscape:export-filename="C:\Users\Bruno\head.png"
       inkscape:export-xdpi="18.640779"
       inkscape:export-ydpi="18.640779" />
    <ellipse
       ry="39.326481"
       rx="31.937256"
       cy="843.70837"
       cx="222.39558"
       id="ellipse3359"
       style="opacity:1;fill:#ffffff;fill-opacity:1;stroke:none;stroke-width:10;stroke-linecap:butt;stroke-opacity:1"
       inkscape:export-filename="C:\Users\Bruno\head.png"
       inkscape:export-xdpi="18.640779"
       inkscape:export-ydpi="18.640779" />
    <ellipse
       cy="844.35223"
       cx="228.71819"
       id="circle3361"
       style="opacity:1;fill:#000000;fill-opacity:1;stroke:none;stroke-width:10;stroke-linecap:butt;stroke-opacity:1"
       rx="4.9901962"
       ry="4.9158101"
       inkscape:export-filename="C:\Users\Bruno\head.png"
       inkscape:export-xdpi="18.640779"
       inkscape:export-ydpi="18.640779" />
    <ellipse
       style="opacity:1;fill:#ffffff;fill-opacity:1;stroke:none;stroke-width:10;stroke-linecap:butt;stroke-opacity:1"
       id="ellipse3363"
       cx="222.39558"
       cy="843.70837"
       rx="31.937256"
       ry="39.326481"
       inkscape:export-filename="C:\Users\Bruno\head.png"
       inkscape:export-xdpi="18.640779"
       inkscape:export-ydpi="18.640779" />
    <ellipse
       style="opacity:1;fill:#000000;fill-opacity:1;stroke:none;stroke-width:10;stroke-linecap:butt;stroke-opacity:1"
       id="circle3365"
       cx="228.71819"
       cy="844.35223"
       rx="4.9901962"
       ry="4.9158101"
       inkscape:export-filename="C:\Users\Bruno\head.png"
       inkscape:export-xdpi="18.640779"
       inkscape:export-ydpi="18.640779" />
    <path
       style="opacity:1;fill:#ff5555;fill-opacity:1;stroke:none;stroke-width:10;stroke-linecap:butt;stroke-opacity:1"
       d="m 283.06746,977.56192 c 0,9.30832 1.18225,21.94897 -17.65275,28.04908 -18.835,6.0999 -52.69705,5.6593 -81.43829,5.6593 -28.74124,0 -75.88969,6.8235 -91.703831,-4.9572 -13.8448,-10.3135 -17.652759,-19.44285 -17.652749,-28.75117 0,-9.30833 -1.895126,-22.65124 16.93987,-28.75126 18.835,-6.10002 55.83374,-2.14813 84.57497,-2.14813 28.74124,0 75.43522,-7.4632 94.27022,-1.36317 18.83499,6.10002 12.66256,22.95422 12.66256,32.26255 z"
       id="path3367"
       inkscape:connector-curvature="0"
       sodipodi:nodetypes="sssssssss"
       inkscape:export-filename="C:\Users\Bruno\head.png"
       inkscape:export-xdpi="18.640779"
       inkscape:export-ydpi="18.640779" />
    <path
       style="opacity:1;fill:#f9f9f9;fill-opacity:1;stroke:none;stroke-width:10;stroke-linecap:butt;stroke-opacity:1"
       d="m 283.60211,960.00545 c 0,3.49062 -6.12745,5.94853 -25.54299,8.23603 -19.41552,2.28751 -46.23783,3.70236 -75.86492,3.70236 -29.6271,0 -60.01382,-0.53702 -79.42934,-2.82453 -19.41553,-2.28751 -24.763543,-4.75376 -25.008342,-8.23604 -0.35646,-5.0707 5.818309,-11.39839 20.909211,-13.67854 24.115551,-3.64372 52.832021,-1.77116 82.459141,-1.77116 29.62711,0 57.21356,-2.92455 76.75605,-2.26684 21.01952,0.70744 25.72119,10.71462 25.72119,16.83872 z"
       id="path3373"
       inkscape:connector-curvature="0"
       sodipodi:nodetypes="sssssssss"
       inkscape:export-filename="C:\Users\Bruno\head.png"
       inkscape:export-xdpi="18.640779"
       inkscape:export-ydpi="18.640779" />
    <path
       sodipodi:nodetypes="sssssssss"
       inkscape:connector-curvature="0"
       id="path3376"
       d="m 281.08418,992.43759 c -0.0111,-3.337 -5.89763,-4.01469 -25.41712,-5.10645 -19.51949,-1.09178 -45.79792,0.98312 -75.41935,0.72976 -31.17829,-0.26668 -53.67225,-3.41935 -72.91463,-0.14594 -19.242375,3.27341 -22.649272,6.10258 -22.682706,9.43888 -0.0487,4.85816 9.942507,11.91946 19.027156,13.80766 25.48981,5.2979 48.03828,-0.29 77.1085,1.0249 29.59139,1.3383 60.80986,-0.9932 79.87023,-5.2606 14.21529,-3.1826 20.44242,-10.13729 20.42792,-14.48821 z"
       style="opacity:1;fill:#f9f9f9;fill-opacity:1;stroke:none;stroke-width:10;stroke-linecap:butt;stroke-opacity:1"
       inkscape:export-filename="C:\Users\Bruno\head.png"
       inkscape:export-xdpi="18.640779"
       inkscape:export-ydpi="18.640779" />
    <path
       sodipodi:nodetypes="sssssssss"
       inkscape:connector-curvature="0"
       id="path3378"
       d="m 611.57314,886.01438 c 0,44.97685 19.8042,115.49002 -10.11649,144.96472 -29.92068,29.4746 -83.3538,19.8971 -129.01122,19.8971 -45.65743,0 -99.13107,-36.1071 -129.05176,-65.5817 C 313.47298,955.81982 309,911.12835 309,866.15151 c 0,-44.97684 6.4488,-63.98631 36.36949,-93.46099 29.92068,-29.47468 67.3041,-27.84227 112.96153,-27.84227 45.65743,0 84.97614,-9.57755 114.89682,19.89712 29.92069,29.47468 38.3453,76.29217 38.3453,121.26901 z"
       style="opacity:1;fill:#ffb380;fill-opacity:1;stroke:none;stroke-width:10;stroke-linecap:butt;stroke-opacity:1"
       inkscape:export-filename="C:\Users\Bruno\head.png"
       inkscape:export-xdpi="18.640779"
       inkscape:export-ydpi="18.640779" />
    <ellipse
       ry="39.326481"
       rx="31.937256"
       cy="843.70837"
       cx="405.64264"
       id="ellipse3380"
       style="opacity:1;fill:#ffffff;fill-opacity:1;stroke:none;stroke-width:10;stroke-linecap:butt;stroke-opacity:1"
       inkscape:export-filename="C:\Users\Bruno\head.png"
       inkscape:export-xdpi="18.640779"
       inkscape:export-ydpi="18.640779" />
    <ellipse
       ry="4.9158101"
       rx="4.9901962"
       cy="844.35223"
       cx="411.96524"
       id="ellipse3382"
       style="opacity:1;fill:#000000;fill-opacity:1;stroke:none;stroke-width:10;stroke-linecap:butt;stroke-opacity:1"
       inkscape:export-filename="C:\Users\Bruno\head.png"
       inkscape:export-xdpi="18.640779"
       inkscape:export-ydpi="18.640779" />
    <ellipse
       style="opacity:1;fill:#ffffff;fill-opacity:1;stroke:none;stroke-width:10;stroke-linecap:butt;stroke-opacity:1"
       id="ellipse3384"
       cx="405.64264"
       cy="843.70837"
       rx="31.937256"
       ry="39.326481"
       inkscape:export-filename="C:\Users\Bruno\head.png"
       inkscape:export-xdpi="18.640779"
       inkscape:export-ydpi="18.640779" />
    <ellipse
       ry="4.9158101"
       rx="4.9901962"
       style="opacity:1;fill:#000000;fill-opacity:1;stroke:none;stroke-width:10;stroke-linecap:butt;stroke-opacity:1"
       id="ellipse3386"
       cx="411.96524"
       cy="844.35223"
       inkscape:export-filename="C:\Users\Bruno\head.png"
       inkscape:export-xdpi="18.640779"
       inkscape:export-ydpi="18.640779" />
    <ellipse
       style="opacity:1;fill:#ffffff;fill-opacity:1;stroke:none;stroke-width:10;stroke-linecap:butt;stroke-opacity:1"
       id="ellipse3388"
       cx="531.39557"
       cy="843.70837"
       rx="31.937256"
       ry="39.326481"
       inkscape:export-filename="C:\Users\Bruno\head.png"
       inkscape:export-xdpi="18.640779"
       inkscape:export-ydpi="18.640779" />
    <ellipse
       ry="4.9158101"
       rx="4.9901962"
       style="opacity:1;fill:#000000;fill-opacity:1;stroke:none;stroke-width:10;stroke-linecap:butt;stroke-opacity:1"
       id="ellipse3390"
       cx="537.7182"
       cy="844.35223"
       inkscape:export-filename="C:\Users\Bruno\head.png"
       inkscape:export-xdpi="18.640779"
       inkscape:export-ydpi="18.640779" />
    <ellipse
       ry="39.326481"
       rx="31.937256"
       cy="843.70837"
       cx="531.39557"
       id="ellipse3392"
       style="opacity:1;fill:#ffffff;fill-opacity:1;stroke:none;stroke-width:10;stroke-linecap:butt;stroke-opacity:1"
       inkscape:export-filename="C:\Users\Bruno\head.png"
       inkscape:export-xdpi="18.640779"
       inkscape:export-ydpi="18.640779" />
    <ellipse
       ry="4.9158101"
       rx="4.9901962"
       cy="844.35223"
       cx="537.7182"
       id="ellipse3394"
       style="opacity:1;fill:#000000;fill-opacity:1;stroke:none;stroke-width:10;stroke-linecap:butt;stroke-opacity:1"
       inkscape:export-filename="C:\Users\Bruno\head.png"
       inkscape:export-xdpi="18.640779"
       inkscape:export-ydpi="18.640779" />
    <path
       sodipodi:nodetypes="sssssssss"
       inkscape:connector-curvature="0"
       id="path3396"
       d="m 592.06709,977.70658 c 0,6.6614 1.18225,15.70756 -17.65272,20.07306 -18.83496,4.36526 -52.69695,4.04996 -81.43814,4.04996 -28.74119,0 -75.88956,4.8832 -91.70367,-3.54756 -13.84478,-7.3807 -17.65273,-13.91405 -17.65272,-20.57546 0,-6.66141 -1.89513,-16.21013 16.93984,-20.57555 18.83497,-4.36542 55.83364,-1.53729 84.57482,-1.53729 28.74119,0 75.43509,-5.34096 94.27005,-0.97554 18.83496,4.36542 12.66254,16.42696 12.66254,23.08838 z"
       style="opacity:1;fill:#ff5555;fill-opacity:1;stroke:none;stroke-width:10;stroke-linecap:butt;stroke-opacity:1"
       inkscape:export-filename="C:\Users\Bruno\head.png"
       inkscape:export-xdpi="18.640779"
       inkscape:export-ydpi="18.640779" />
    <path
       sodipodi:nodetypes="sssssszss"
       inkscape:connector-curvature="0"
       id="path3398"
       d="m 593.35972,968.51055 c 0.11927,3.48858 -6.88506,5.44345 -26.3006,7.73095 -19.41552,2.28751 -46.23783,3.70236 -75.86492,3.70236 -29.6271,0 -60.01382,-0.53702 -79.42934,-2.82453 -19.41553,-2.28751 -26.21376,-4.99817 -26.27103,-8.48858 -0.10393,-6.33339 3.79801,-9.65092 20.1516,-12.94123 23.91012,-4.81066 57.94346,0.42089 84.47944,-0.25593 26.53598,-0.67682 54.93048,-3.20407 76.75605,-2.26684 22.01032,0.94516 26.22626,7.95701 26.4788,15.3438 z"
       style="opacity:1;fill:#f9f9f9;fill-opacity:1;stroke:none;stroke-width:10;stroke-linecap:butt;stroke-opacity:1"
       inkscape:export-filename="C:\Users\Bruno\head.png"
       inkscape:export-xdpi="18.640779"
       inkscape:export-ydpi="18.640779" />
    <path
       style="opacity:1;fill:#f9f9f9;fill-opacity:1;stroke:none;stroke-width:10;stroke-linecap:butt;stroke-opacity:1"
       d="m 591.09433,984.43761 c -0.0111,-3.337 -6.90778,-4.01469 -26.42727,-5.10645 -19.51949,-1.09178 -45.79792,0.98312 -75.41935,0.72976 -31.17829,-0.26668 -53.67225,-3.41935 -72.91463,-0.14594 -19.24238,3.27341 -25.67973,5.09243 -25.71317,8.42873 -0.0487,4.85816 12.82647,13.87859 22.05762,14.81779 12.35783,1.2573 51.57381,-0.5425 81.40165,-0.9954 29.61822,-0.4497 56.52057,1.0443 75.57708,-3.24028 19.77113,-4.44529 21.45257,-10.13729 21.43807,-14.48821 z"
       id="path3400"
       inkscape:connector-curvature="0"
       sodipodi:nodetypes="sssssssss"
       inkscape:export-filename="C:\Users\Bruno\head.png"
       inkscape:export-xdpi="18.640779"
       inkscape:export-ydpi="18.640779" />
  </g>
</svg>
